<svg width="400" height="300" viewBox="0 0 800 600" fill="none" xmlns="http://www.w3.org/2000/svg" data-reactroot="">
<path opacity="0.2" d="M723.043 162.35C826.847 499.587 756.095 585.833 549.518 585.833C102.577 585.833 -46.7042 517.146 40.822 106.058C83.2798 -93.355 145.49 145.308 330.03 145.308C514.569 145.308 685.434 40.1666 723.043 162.35Z" fill="#B3CAF8" stroke="#2249B3" stroke-width="1"></path>
<path d="M415.611 125.826C417.353 125.826 418.766 124.413 418.766 122.671C418.766 120.929 417.353 119.516 415.611 119.516C413.869 119.516 412.456 120.929 412.456 122.671C412.456 124.413 413.869 125.826 415.611 125.826Z" fill="#B3CAF8" stroke="#2249B3" stroke-width="1"></path>
<path d="M202.429 205.238C203.773 205.238 204.862 204.149 204.862 202.804C204.862 201.46 203.773 200.371 202.429 200.371C201.085 200.371 199.995 201.46 199.995 202.804C199.995 204.149 201.085 205.238 202.429 205.238Z" fill="#B3CAF8" stroke="#2249B3" stroke-width="1"></path>
<path fill-rule="evenodd" clip-rule="evenodd" d="M415.688 129.538L433.173 193.433L448.216 188.164L448.812 189.865L431.944 195.774L415.537 135.815L386.133 225.958L228.768 280.018L202.537 213.209L179.989 287.233L172.279 297.451L128.362 318.458L127.584 316.832L171.104 296.014L178.358 286.402L202.322 207.728L229.815 277.752L384.697 224.545L415.688 129.538Z" fill="#8FE4FF" stroke="#2249B3" stroke-width="1"></path>
<path d="M412.817 107.345C402.09 106.714 391.724 102.207 391.724 94.0041C391.724 89.5873 395.149 85.8915 399.386 85.8915C403.442 85.8915 406.958 89.2267 406.958 94.0041C406.958 96.2577 405.876 98.7816 404.073 100.494C406.687 102.297 409.482 103.198 412.817 103.379V83.2774C403.533 79.4915 392.626 75.2549 392.626 60.2915C392.626 48.8437 402 41.1817 412.907 40.0099V36.855H416.964V40.0099C426.068 40.4606 436.794 45.1479 436.794 53.2606C436.794 57.5873 433.64 61.4634 429.673 61.4634C425.437 61.4634 422.011 58.038 422.011 53.6211C422.011 51.0071 423.634 47.9423 425.797 46.5902C424.175 45.1479 420.479 43.886 416.964 43.6155V63.176C426.609 66.7817 438.417 70.6577 438.417 86.7929C438.417 100.584 425.978 106.894 416.964 107.525V111.311H412.907V107.345H412.817ZM403.713 94.7253C403.803 94.3647 403.893 93.914 403.893 93.5534C403.893 93.1929 403.803 93.0126 403.803 92.7422H394.609C394.609 93.0126 394.518 93.1929 394.518 93.5534C394.518 93.914 394.609 94.3647 394.699 94.7253H403.713ZM402.992 90.3985C402.09 89.3168 400.828 88.5957 399.296 88.5957C397.764 88.5957 396.502 89.3168 395.6 90.3985H402.992ZM402.992 96.9788H395.69C396.682 98.3309 397.854 99.052 399.386 99.052C400.918 99.052 402.271 98.2408 402.992 96.9788ZM406.597 62.4549C405.786 61.8239 404.975 61.193 404.344 60.3817H395.961C395.961 61.1028 396.051 61.8239 396.141 62.4549H406.597ZM402.811 58.4887L401.82 56.4155H396.411C396.231 57.0465 396.051 57.7676 396.051 58.4887H402.811ZM414.44 66.6014C412.727 65.9704 411.195 65.2493 409.752 64.5282H396.321C396.502 65.2493 396.682 65.9704 396.952 66.6014H414.44ZM401.369 54.4324C401.279 53.7113 401.189 53.0803 401.189 52.3592H398.124C397.764 52.9902 397.403 53.7113 397.042 54.4324H401.369ZM424.445 70.5676C422.913 69.7563 421.29 69.1253 419.668 68.4943H397.944C398.395 69.2155 398.845 69.9366 399.386 70.5676H424.445ZM401.279 50.3761C401.369 49.655 401.64 48.6634 401.82 48.0324C401.009 48.6634 400.378 49.3845 399.476 50.3761H401.279ZM430.304 74.6239C429.493 73.9028 428.682 73.1817 427.69 72.5507H401.099C402 73.3619 402.992 74.0831 403.893 74.6239H430.304ZM412.817 43.7958C408.4 44.5169 404.434 47.131 404.434 51.5479C404.434 56.5958 407.949 59.3 412.817 61.4634V43.7958ZM433.279 78.6802C432.918 77.869 432.468 77.238 432.107 76.607H407.589C409.211 77.3281 410.834 78.0493 412.456 78.6802H433.279ZM425.797 94.8154C425.797 89.7675 421.921 87.1535 416.873 84.8999V103.108C421.741 102.297 425.797 98.9619 425.797 94.8154ZM434.631 82.7366C434.451 82.0154 434.271 81.2943 434.09 80.6633H417.234C418.766 81.2943 420.118 82.0154 421.471 82.7366H434.631ZM434.901 86.7028C434.901 85.8915 434.811 85.2605 434.811 84.6295H424.175C424.986 85.2605 425.707 85.9816 426.338 86.7028H434.901ZM433.91 54.3423C434 54.0718 434 53.8916 434 53.7113C434 53.2606 433.91 52.7197 433.73 52.3592H424.896C424.716 52.7197 424.625 53.2606 424.625 53.7113C424.625 53.8916 424.625 54.0718 424.716 54.3423H433.91ZM433.189 56.5056H425.437C426.338 57.6775 427.69 58.4887 429.313 58.4887C430.935 58.5789 432.287 57.7676 433.189 56.5056ZM432.828 50.1958C431.927 49.1141 430.665 48.2127 429.313 48.2127C427.871 48.2127 426.699 49.1141 425.797 50.1958H432.828ZM434.361 90.8492C434.541 90.1281 434.721 89.4971 434.721 88.776H427.69C428.051 89.407 428.321 90.1281 428.592 90.8492H434.361ZM431.296 96.8886H428.952C428.772 97.6098 428.141 98.8717 427.871 99.5027C429.313 98.9619 430.304 97.9703 431.296 96.8886ZM432.558 94.8154C432.918 94.1844 433.369 93.4633 433.64 92.7422H428.862C428.952 93.3732 429.042 94.0943 429.042 94.8154H432.558Z" fill="#157efb" stroke="#2249B3" stroke-width="1"></path>
<path d="M199.456 190.275C194.498 190.005 189.72 187.931 189.72 184.055C189.72 181.982 191.343 180.269 193.236 180.269C195.129 180.269 196.751 181.802 196.751 184.055C196.751 185.137 196.301 186.309 195.399 187.03C196.571 187.841 197.923 188.292 199.456 188.382V179.098C195.129 177.385 190.081 175.402 190.081 168.461C190.081 163.143 194.408 159.627 199.456 159.086V157.644H201.349V159.086C205.585 159.267 210.543 161.43 210.543 165.216C210.543 167.199 209.101 169.002 207.208 169.002C205.225 169.002 203.692 167.379 203.692 165.396C203.692 164.134 204.413 162.782 205.405 162.151C204.684 161.52 202.971 160.889 201.349 160.799V169.813C205.856 171.526 211.264 173.238 211.264 180.72C211.264 187.12 205.495 190.005 201.349 190.365V192.078H199.456V190.275V190.275ZM195.219 184.416C195.219 184.236 195.309 184.055 195.309 183.875C195.309 183.695 195.309 183.605 195.309 183.514H191.073C191.073 183.605 191.073 183.695 191.073 183.875C191.073 184.055 191.073 184.236 191.163 184.416H195.219ZM194.858 182.433C194.408 181.892 193.867 181.621 193.146 181.621C192.425 181.621 191.884 181.982 191.433 182.433H194.858ZM194.858 185.497H191.433C191.884 186.128 192.425 186.489 193.146 186.489C193.867 186.489 194.498 186.038 194.858 185.497ZM196.481 169.543C196.12 169.272 195.76 168.912 195.399 168.551H191.613C191.613 168.912 191.613 169.182 191.704 169.543H196.481ZM194.768 167.65L194.318 166.658H191.794C191.704 166.929 191.613 167.289 191.613 167.65H194.768ZM200.177 171.436C199.366 171.165 198.644 170.805 198.013 170.444H191.794C191.884 170.805 191.974 171.075 192.064 171.436H200.177ZM194.047 165.757C194.047 165.396 193.957 165.126 193.957 164.765H192.515C192.335 165.036 192.154 165.396 192.064 165.757H194.047ZM204.774 173.238C204.053 172.878 203.332 172.607 202.52 172.247H192.515C192.695 172.607 192.966 172.878 193.146 173.238H204.774ZM194.047 163.864C194.047 163.503 194.227 163.052 194.318 162.782C193.957 163.052 193.687 163.413 193.236 163.864H194.047ZM207.568 175.131C207.208 174.771 206.847 174.5 206.396 174.14H194.047C194.498 174.5 194.858 174.861 195.309 175.131H207.568ZM199.456 160.889C197.382 161.25 195.58 162.422 195.58 164.495C195.58 166.838 197.202 168.1 199.456 169.092V160.889ZM208.83 177.024C208.65 176.664 208.47 176.393 208.289 176.033H196.932C197.653 176.393 198.464 176.664 199.185 177.024H208.83ZM205.405 184.506C205.405 182.162 203.602 180.99 201.258 179.909V188.382C203.512 188.021 205.405 186.399 205.405 184.506ZM209.461 178.917C209.371 178.557 209.281 178.286 209.191 177.926H201.349C202.07 178.196 202.701 178.557 203.332 178.917H209.461ZM209.642 180.72C209.642 180.359 209.642 180.089 209.642 179.729H204.684C205.044 179.999 205.405 180.359 205.675 180.72H209.642ZM209.191 165.757C209.191 165.667 209.191 165.576 209.191 165.486C209.191 165.306 209.191 165.036 209.101 164.855H205.044C204.954 165.036 204.954 165.306 204.954 165.486C204.954 165.576 204.954 165.667 204.954 165.757H209.191ZM208.83 166.748H205.225C205.675 167.289 206.306 167.65 207.027 167.65C207.749 167.65 208.38 167.289 208.83 166.748ZM208.65 163.864C208.199 163.323 207.658 162.962 207.027 162.962C206.396 162.962 205.765 163.413 205.405 163.864H208.65ZM209.371 182.613C209.461 182.252 209.551 181.982 209.551 181.621H206.306C206.487 181.892 206.577 182.252 206.757 182.613H209.371ZM207.929 185.407H206.937C206.847 185.768 206.577 186.309 206.396 186.669C207.027 186.399 207.568 185.948 207.929 185.407ZM208.56 184.506C208.74 184.236 208.92 183.875 209.101 183.514H206.937C206.937 183.785 207.027 184.145 207.027 184.506H208.56Z" fill="#157efb" stroke="#2249B3" stroke-width="1"></path>
<path fill-rule="evenodd" clip-rule="evenodd" d="M235.277 65.5078L232.869 67.7523L236.673 68.3983L266.062 129.171L219.054 171.195L221.073 174.699L313.467 190.759L357.96 142.779L327.7 80.9233L235.37 65.526L235.277 65.5078Z" fill="#157efb" stroke="#2249B3" stroke-width="1"></path>
<path fill-rule="evenodd" clip-rule="evenodd" d="M235.277 65.5078L232.869 67.7523L236.673 68.3983L266.062 129.171L219.054 171.195L221.073 174.699L313.467 190.759L357.96 142.779L327.7 80.9233L235.37 65.526L235.277 65.5078Z" fill="black" fill-opacity="0.31" stroke="#2249B3" stroke-width="1"></path>
<path d="M219.272 171.32L261.752 126.001L354.175 141.414L311.695 186.733L219.272 171.32Z" fill="#157efb" stroke="#2249B3" stroke-width="1"></path>
<path d="M232.858 67.7316L261.752 126.001L354.175 141.414L325.281 83.1445L232.858 67.7316Z" fill="#157efb" stroke="#2249B3" stroke-width="1"></path>
<path d="M232.858 67.7316L261.752 126.001L354.175 141.414L325.281 83.1445L232.858 67.7316Z" fill="black" fill-opacity="0.5" stroke="#2249B3" stroke-width="1"></path>
<path d="M238.754 71.3123L264.84 123.919L348.28 137.834L322.194 85.2272L238.754 71.3123Z" fill="white" fill-opacity="0.58" stroke="#2249B3" stroke-width="1"></path>
<path d="M229.77 42.5383L255.856 95.1447L339.297 109.06L313.21 56.4532L229.77 42.5383Z" fill="#B3CAF8" fill-opacity="0.6" stroke="#2249B3" stroke-width="1"></path>
<path fill-rule="evenodd" clip-rule="evenodd" d="M261.007 139.301L258.45 138.87L260.898 136.632L263.456 137.062L261.007 139.301ZM270.432 141.056L265.318 140.195L268.57 137.923L273.684 138.784L270.432 141.056ZM280.363 142.79L275.248 141.929L278.799 139.646L283.913 140.507L280.363 142.79ZM290.591 144.512L285.477 143.651L289.027 141.368L294.142 142.229L290.591 144.512ZM301.317 146.214L296.203 145.353L299.256 143.09L304.37 143.951L301.317 146.214ZM311.745 147.928L306.63 147.067L309.485 144.812L314.599 145.673L311.745 147.928ZM321.675 149.663L316.561 148.802L319.713 146.534L324.828 147.395L321.675 149.663ZM330.064 151.24L327.506 150.81L329.942 148.256L332.499 148.687C336.378 149.34 332.961 151.728 330.064 151.24Z" fill="#373248" stroke="#2249B3" stroke-width="1"></path>
<path fill-rule="evenodd" clip-rule="evenodd" d="M254.579 145.508L252.022 145.077L254.471 142.838L257.028 143.269L254.579 145.508ZM264.005 147.262L258.89 146.401L262.142 144.13L267.257 144.991L264.005 147.262ZM273.935 148.997L268.821 148.136L272.371 145.852L277.485 146.713L273.935 148.997ZM284.163 150.719L279.049 149.858L282.6 147.574L287.714 148.435L284.163 150.719ZM294.889 152.421L289.775 151.56L292.828 149.296L297.943 150.158L294.889 152.421ZM305.317 154.135L300.203 153.274L303.057 151.019L308.171 151.88L305.317 154.135ZM315.247 155.869L310.133 155.008L313.286 152.741L318.4 153.602L315.247 155.869ZM323.636 157.447L321.079 157.016L323.514 154.463L326.071 154.893C329.951 155.547 326.533 157.935 323.636 157.447Z" fill="#373248" stroke="#2249B3" stroke-width="1"></path>
<path fill-rule="evenodd" clip-rule="evenodd" d="M248.151 151.714L245.594 151.284L248.043 149.045L250.6 149.475L248.151 151.714ZM257.577 153.469L252.462 152.608L255.714 150.336L260.829 151.198L257.577 153.469ZM267.507 155.203L262.393 154.342L265.943 152.059L271.057 152.92L267.507 155.203ZM277.736 156.925L272.621 156.064L276.172 153.781L281.286 154.642L277.736 156.925ZM288.462 158.627L283.347 157.766L286.4 155.503L291.515 156.364L288.462 158.627ZM298.889 160.341L293.775 159.48L296.629 157.225L301.743 158.086L298.889 160.341ZM308.819 162.076L303.705 161.215L306.858 158.947L311.972 159.808L308.819 162.076ZM317.208 163.654L314.651 163.223L317.086 160.669L319.643 161.1C323.523 161.753 320.105 164.141 317.208 163.654Z" fill="#373248" stroke="#2249B3" stroke-width="1"></path>
<path fill-rule="evenodd" clip-rule="evenodd" d="M241.724 157.92L239.167 157.49L241.615 155.251L244.172 155.681L241.724 157.92ZM251.149 159.675L246.035 158.814L249.286 156.543L254.401 157.404L251.149 159.675ZM261.079 161.409L255.965 160.548L259.515 158.265L264.629 159.126L261.079 161.409ZM271.308 163.131L266.193 162.27L269.744 159.987L274.858 160.848L271.308 163.131ZM282.034 164.833L276.919 163.972L279.972 161.709L285.087 162.57L282.034 164.833ZM292.461 166.547L287.347 165.686L290.201 163.431L295.315 164.292L292.461 166.547ZM302.392 168.282L297.277 167.421L300.43 165.153L305.544 166.014L302.392 168.282ZM310.78 169.86L308.223 169.429L310.658 166.876L313.216 167.306C317.095 167.959 313.677 170.347 310.78 169.86Z" fill="#373248" stroke="#2249B3" stroke-width="1"></path>
<path fill-rule="evenodd" clip-rule="evenodd" d="M261.007 140.16L258.45 139.73L260.898 137.491L263.456 137.922L261.007 140.16ZM270.432 141.915L265.318 141.054L268.57 138.783L273.684 139.644L270.432 141.915ZM280.363 143.65L275.248 142.788L278.799 140.505L283.913 141.366L280.363 143.65ZM290.591 145.372L285.477 144.511L289.027 142.227L294.142 143.088L290.591 145.372ZM301.317 147.074L296.203 146.213L299.256 143.949L304.37 144.81L301.317 147.074ZM311.745 148.788L306.63 147.927L309.485 145.671L314.599 146.533L311.745 148.788ZM321.675 150.522L316.561 149.661L319.713 147.394L324.828 148.255L321.675 150.522ZM330.064 152.1L327.506 151.669L329.942 149.116L332.499 149.546C336.378 150.199 332.961 152.588 330.064 152.1Z" fill="#B3CAF8" stroke="#2249B3" stroke-width="1"></path>
<path fill-rule="evenodd" clip-rule="evenodd" d="M254.579 146.367L252.022 145.936L254.471 143.698L257.028 144.128L254.579 146.367ZM264.005 148.122L258.89 147.261L262.142 144.989L267.257 145.85L264.005 148.122ZM273.935 149.856L268.821 148.995L272.371 146.711L277.485 147.573L273.935 149.856ZM284.163 151.578L279.049 150.717L282.6 148.434L287.714 149.295L284.163 151.578ZM294.889 153.28L289.775 152.419L292.828 150.156L297.943 151.017L294.889 153.28ZM305.317 154.994L300.203 154.133L303.057 151.878L308.171 152.739L305.317 154.994ZM315.247 156.729L310.133 155.867L313.286 153.6L318.4 154.461L315.247 156.729ZM323.636 158.306L321.079 157.876L323.514 155.322L326.071 155.753C329.951 156.406 326.533 158.794 323.636 158.306Z" fill="#B3CAF8" stroke="#2249B3" stroke-width="1"></path>
<path fill-rule="evenodd" clip-rule="evenodd" d="M248.151 152.573L245.594 152.143L248.043 149.904L250.6 150.335L248.151 152.573ZM257.577 154.328L252.462 153.467L255.714 151.196L260.829 152.057L257.577 154.328ZM267.507 156.063L262.393 155.202L265.943 152.918L271.057 153.779L267.507 156.063ZM277.736 157.785L272.621 156.924L276.172 154.64L281.286 155.501L277.736 157.785ZM288.462 159.487L283.347 158.626L286.4 156.362L291.515 157.223L288.462 159.487ZM298.889 161.201L293.775 160.34L296.629 158.085L301.743 158.946L298.889 161.201ZM308.819 162.935L303.705 162.074L306.858 159.807L311.972 160.668L308.819 162.935ZM317.208 164.513L314.651 164.082L317.086 161.529L319.643 161.959C323.523 162.613 320.105 165.001 317.208 164.513Z" fill="#B3CAF8" stroke="#2249B3" stroke-width="1"></path>
<path fill-rule="evenodd" clip-rule="evenodd" d="M241.724 158.78L239.167 158.349L241.615 156.11L244.172 156.541L241.724 158.78ZM251.149 160.534L246.035 159.673L249.286 157.402L254.401 158.263L251.149 160.534ZM261.079 162.269L255.965 161.408L259.515 159.124L264.629 159.985L261.079 162.269ZM271.308 163.991L266.193 163.13L269.744 160.846L274.858 161.707L271.308 163.991ZM282.034 165.693L276.919 164.832L279.972 162.568L285.087 163.429L282.034 165.693ZM292.461 167.407L287.347 166.546L290.201 164.291L295.315 165.152L292.461 167.407ZM302.392 169.141L297.277 168.28L300.43 166.013L305.544 166.874L302.392 169.141ZM310.78 170.719L308.223 170.288L310.658 167.735L313.216 168.165C317.095 168.819 313.677 171.207 310.78 170.719Z" fill="#B3CAF8" stroke="#2249B3" stroke-width="1"></path>
<path fill-rule="evenodd" clip-rule="evenodd" d="M328.648 89.9366L323.294 89.0913C318.331 88.308 320.235 97.3846 329.233 98.4596C330.277 98.5844 331.61 98.7757 333.151 99.0165L328.648 89.9366ZM336.389 105.547L330.949 104.688C325.987 103.904 327.891 112.981 336.888 114.056C337.952 114.183 339.315 114.379 340.891 114.626L336.389 105.547ZM344.129 121.155L338.605 120.283C333.642 119.5 335.546 128.577 344.544 129.651C345.627 129.781 347.019 129.982 348.631 130.235L344.129 121.155Z" fill="#040404" fill-opacity="0.33" stroke="#2249B3" stroke-width="1"></path>
<path fill-rule="evenodd" clip-rule="evenodd" d="M255.621 113.635L288.489 119.55L286.386 114.368L253.231 108.816L255.621 113.635ZM250.164 102.631L284.061 108.731L281.958 103.549L247.781 97.826L250.164 102.631ZM245.17 92.5606C255.618 94.486 266.045 96.5492 266.045 96.5492C275.449 98.0336 271.07 88.0411 264.78 87.0482L240.54 83.2217L245.17 92.5606Z" fill="black" fill-opacity="0.14" stroke="#2249B3" stroke-width="1"></path>
<path d="M215.931 82.9204L259.994 89.876C266.284 90.8689 270.662 100.861 261.259 99.377C261.259 99.377 230.867 93.3635 221.87 92.2886C212.872 91.2137 210.968 82.137 215.931 82.9204Z" fill="#8FE4FF" stroke="#2249B3" stroke-width="1"></path>
<path d="M315.963 91.4018L360.026 98.3575C366.316 99.3504 370.695 109.343 361.291 107.858C361.291 107.858 330.9 101.845 321.902 100.77C312.905 99.6951 311.001 90.6185 315.963 91.4018Z" fill="#8FE4FF" stroke="#2249B3" stroke-width="1"></path>
<path d="M323.619 106.997L367.683 113.953C373.973 114.946 378.351 124.938 368.947 123.454C368.947 123.454 338.556 117.44 329.558 116.365C320.561 115.29 318.657 106.214 323.619 106.997Z" fill="#8FE4FF" stroke="#2249B3" stroke-width="1"></path>
<path d="M331.275 122.592L375.339 129.548C381.629 130.541 386.007 140.533 376.603 139.049C376.603 139.049 346.212 133.035 337.214 131.96C328.217 130.886 326.313 121.809 331.275 122.592Z" fill="#8FE4FF" stroke="#2249B3" stroke-width="1"></path>
<path d="M237.315 99.7017L277.173 106.376L279.275 111.558L239.886 104.469L237.315 99.7017Z" fill="#8FE4FF" stroke="#2249B3" stroke-width="1"></path>
<path d="M241.743 110.52L281.6 117.195L283.703 122.376L244.314 115.288L241.743 110.52Z" fill="#8FE4FF" stroke="#2249B3" stroke-width="1"></path>
<path opacity="0.9" d="M293.245 57.6122L252.225 50.7358L269.177 88.1568L309.556 95.2732L293.245 57.6122Z" fill="white" fill-opacity="0.54" stroke="#2249B3" stroke-width="1"></path>
<path d="M262.949 59.1172L288.618 63.4337L290.042 66.7688L264.411 62.2275L262.949 59.1172Z" fill="black" fill-opacity="0.1" stroke="#2249B3" stroke-width="1"></path>
<path d="M266.103 66.1289L291.629 70.395L292.98 73.7132L267.567 69.1432L266.103 66.1289Z" fill="black" fill-opacity="0.1" stroke="#2249B3" stroke-width="1"></path>
<path d="M268.995 72.3857L294.271 76.6323L295.706 79.9939L270.383 75.4105L268.995 72.3857Z" fill="black" fill-opacity="0.1" stroke="#2249B3" stroke-width="1"></path>
<path d="M272.147 79.354L297.342 83.6439L298.835 86.8909L273.593 82.5062L272.147 79.354Z" fill="black" fill-opacity="0.1" stroke="#2249B3" stroke-width="1"></path>
<path d="M261.49 61.2695L287.159 65.586L288.583 68.9212L262.952 64.3798L261.49 61.2695Z" fill="#157efb" stroke="#2249B3" stroke-width="1"></path>
<path d="M264.644 68.2812L290.17 72.5474L291.521 75.8655L266.107 71.2955L264.644 68.2812Z" fill="#157efb" stroke="#2249B3" stroke-width="1"></path>
<path d="M267.536 74.5381L292.811 78.7846L294.247 82.1462L268.924 77.5629L267.536 74.5381Z" fill="#157efb" stroke="#2249B3" stroke-width="1"></path>
<path d="M270.688 81.5063L295.882 85.7962L297.376 89.0433L272.134 84.6586L270.688 81.5063Z" fill="#157efb" stroke="#2249B3" stroke-width="1"></path>
<path d="M342.031 113.206C342.087 113.137 342.187 113.127 342.255 113.182C342.324 113.238 342.335 113.338 342.279 113.407L342.031 113.206ZM340.727 115.07L340.633 115.198L340.498 115.099L340.603 114.97L340.727 115.07ZM342.667 116.3C342.738 116.352 342.753 116.452 342.701 116.523C342.648 116.594 342.549 116.609 342.478 116.557L342.667 116.3ZM342.279 113.407L340.851 115.17L340.603 114.97L342.031 113.206L342.279 113.407ZM340.822 114.942L342.667 116.3L342.478 116.557L340.633 115.198L340.822 114.942Z" fill="#E8ECFA" stroke="#2249B3" stroke-width="1"></path>
<path d="M347.327 117.4C347.272 117.468 347.171 117.479 347.103 117.423C347.034 117.368 347.024 117.267 347.079 117.199L347.327 117.4ZM348.631 115.536L348.726 115.407L348.86 115.506L348.755 115.636L348.631 115.536ZM346.691 114.306C346.62 114.253 346.605 114.154 346.657 114.083C346.71 114.012 346.81 113.997 346.88 114.049L346.691 114.306ZM347.079 117.199L348.507 115.435L348.755 115.636L347.327 117.4L347.079 117.199ZM348.536 115.664L346.691 114.306L346.88 114.049L348.726 115.407L348.536 115.664Z" fill="#E8ECFA" stroke="#2249B3" stroke-width="1"></path>
<path d="M744.193 103.751C758.618 103.751 770.354 115.486 770.354 129.912C770.354 144.337 758.618 156.073 744.193 156.073C729.768 156.073 718.032 144.337 718.032 129.912C718.032 115.486 729.768 103.751 744.193 103.751ZM744.193 93.5679C724.121 93.5679 707.849 109.839 707.849 129.912C707.849 149.984 724.121 166.256 744.193 166.256C764.265 166.256 780.537 149.984 780.537 129.912C780.537 109.839 764.265 93.5679 744.193 93.5679Z" fill="#157efb" stroke="#2249B3" stroke-width="1"></path>
<path d="M749.904 88.2476H738.484V97.9972H749.904V88.2476Z" fill="#157efb" stroke="#2249B3" stroke-width="1"></path>
<path d="M749.902 161.381H738.481V171.131H749.902V161.381Z" fill="#157efb" stroke="#2249B3" stroke-width="1"></path>
<path d="M769.456 96.3516L762.562 103.245L770.637 111.321L777.531 104.427L769.456 96.3516Z" fill="#157efb" stroke="#2249B3" stroke-width="1"></path>
<path d="M717.742 148.065L710.848 154.959L718.924 163.035L725.818 156.141L717.742 148.065Z" fill="#157efb" stroke="#2249B3" stroke-width="1"></path>
<path d="M785.636 123.981H775.886V135.402H785.636V123.981Z" fill="#157efb" stroke="#2249B3" stroke-width="1"></path>
<path d="M712.498 123.98H702.749V135.401H712.498V123.98Z" fill="#157efb" stroke="#2249B3" stroke-width="1"></path>
<path d="M770.64 148.073L762.564 156.149L769.458 163.043L777.534 154.967L770.64 148.073Z" fill="#157efb" stroke="#2249B3" stroke-width="1"></path>
<path d="M718.925 96.3521L710.849 104.428L717.743 111.322L725.818 103.246L718.925 96.3521Z" fill="#157efb" stroke="#2249B3" stroke-width="1"></path>
<path d="M683.879 69.9741C694.256 69.9741 702.698 78.4159 702.698 88.7925C702.698 99.1691 694.256 107.611 683.879 107.611C673.503 107.611 665.061 99.1691 665.061 88.7925C665.061 78.4159 673.503 69.9741 683.879 69.9741ZM683.879 62.6494C669.441 62.6494 657.736 74.3539 657.736 88.7925C657.736 103.231 669.441 114.936 683.879 114.936C698.318 114.936 710.022 103.231 710.022 88.7925C710.022 74.3539 698.318 62.6494 683.879 62.6494Z" fill="#157efb" stroke="#2249B3" stroke-width="1"></path>
<path d="M689.513 57.5127H678.246V67.131H689.513V57.5127Z" fill="#157efb" stroke="#2249B3" stroke-width="1"></path>
<path d="M689.511 110.115H678.244V119.734H689.511V110.115Z" fill="#157efb" stroke="#2249B3" stroke-width="1"></path>
<path d="M701.896 62.646L695.094 69.4471L703.062 77.4141L709.863 70.613L701.896 62.646Z" fill="#157efb" stroke="#2249B3" stroke-width="1"></path>
<path d="M664.698 99.8481L657.896 106.649L665.864 114.617L672.665 107.815L664.698 99.8481Z" fill="#157efb" stroke="#2249B3" stroke-width="1"></path>
<path d="M714.994 82.9917H705.375V94.2589H714.994V82.9917Z" fill="#157efb" stroke="#2249B3" stroke-width="1"></path>
<path d="M662.384 82.9927H652.765V94.2598H662.384V82.9927Z" fill="#157efb" stroke="#2249B3" stroke-width="1"></path>
<path d="M703.063 99.8511L695.096 107.818L701.897 114.62L709.864 106.652L703.063 99.8511Z" fill="#157efb" stroke="#2249B3" stroke-width="1"></path>
<path d="M665.861 62.6494L657.894 70.6164L664.695 77.4175L672.662 69.4505L665.861 62.6494Z" fill="#157efb" stroke="#2249B3" stroke-width="1"></path>
<circle cx="744.191" cy="129.911" r="14.1818" fill="#B3CAF8" stroke="#2249B3" stroke-width="1"></circle>
<circle cx="744.194" cy="129.692" r="9.95851" fill="#8FE4FF" stroke="#2249B3" stroke-width="1"></circle>
<g clip-path="url(#clip0)">
<path opacity="0.36" d="M677.828 308.297L623.083 269.524C621.796 268.612 621.491 266.829 622.403 265.541L679.177 185.382C680.089 184.094 681.872 183.79 683.159 184.702L737.904 223.475C743.234 227.25 744.494 234.63 740.72 239.96L694.313 305.482C690.538 310.812 683.158 312.072 677.828 308.297Z" fill="#272547" stroke="#2249B3" stroke-width="1"></path>
<path d="M676.754 304.581L619.671 264.152C618.394 263.248 618.092 261.479 618.996 260.202L672.902 184.093C673.806 182.816 675.575 182.514 676.852 183.418L733.934 223.847C739.221 227.591 740.471 234.912 736.727 240.198L693.105 301.79C689.361 307.076 682.04 308.326 676.754 304.581Z" fill="#157efb" stroke="#2249B3" stroke-width="1"></path>
<path d="M723.655 216.566L719.344 222.654C713.96 230.255 715.759 240.781 723.36 246.165L729.448 250.477L738.04 237.79L738.78 231.869L736.299 226.073L723.655 216.566Z" fill="#8FE4FF" stroke="#2249B3" stroke-width="1"></path>
<path d="M666.619 297.096L670.931 291.009C676.314 283.408 686.841 281.611 694.442 286.994L700.53 291.306L691.414 303.622L686.074 306.285L679.783 305.868L666.619 297.096Z" fill="#8FE4FF" stroke="#2249B3" stroke-width="1"></path>
<path opacity="0.36" d="M712.981 273.726L696.72 262.209L693.753 253.369L703.077 253.234L719.338 264.751L712.981 273.726Z" fill="#272547" stroke="#2249B3" stroke-width="1"></path>
<path d="M714.399 271.724L699.992 261.52L697.017 254.178L704.931 254.547L719.338 264.751L714.399 271.724Z" fill="#8FE4FF" stroke="#2249B3" stroke-width="1"></path>
<path fill-rule="evenodd" clip-rule="evenodd" d="M676.336 184.146C675.461 183.527 674.25 183.734 673.63 184.608L619.725 260.718C619.105 261.593 619.312 262.804 620.187 263.424L677.27 303.853C682.154 307.312 688.918 306.158 692.377 301.274L735.999 239.682C739.458 234.798 738.303 228.035 733.419 224.575L676.336 184.146ZM672.174 183.577C673.363 181.897 675.689 181.5 677.368 182.69L734.45 223.119C740.139 227.148 741.485 235.025 737.456 240.714L693.833 302.305C689.804 307.994 681.927 309.339 676.238 305.31L619.156 264.881C617.476 263.691 617.079 261.366 618.268 259.686L672.174 183.577Z" fill="#B3CAF8" stroke="#2249B3" stroke-width="1"></path>
<path fill-rule="evenodd" clip-rule="evenodd" d="M724.171 215.838C724.573 216.123 724.668 216.68 724.383 217.082L720.072 223.17C714.973 230.368 716.676 240.338 723.875 245.436L729.963 249.748C730.366 250.033 730.461 250.59 730.176 250.992C729.891 251.395 729.334 251.49 728.932 251.205L722.844 246.893C714.84 241.224 712.947 230.141 718.615 222.138L722.927 216.051C723.211 215.648 723.768 215.553 724.171 215.838Z" fill="#B3CAF8" stroke="#2249B3" stroke-width="1"></path>
<path fill-rule="evenodd" clip-rule="evenodd" d="M694.225 287.3C687.026 282.201 677.057 283.903 671.958 291.102L667.647 297.19C667.362 297.592 666.805 297.687 666.402 297.402C666 297.117 665.905 296.56 666.19 296.158L670.501 290.07C676.17 282.067 687.253 280.175 695.257 285.844L701.345 290.156C701.747 290.44 701.842 290.997 701.557 291.4C701.272 291.802 700.715 291.897 700.313 291.612L694.225 287.3Z" fill="#B3CAF8" stroke="#2249B3" stroke-width="1"></path>
<path fill-rule="evenodd" clip-rule="evenodd" d="M676.634 188.773C676.867 188.938 676.922 189.261 676.757 189.494L676.368 190.043C676.203 190.276 675.88 190.331 675.647 190.166C675.414 190.001 675.359 189.678 675.524 189.445L675.913 188.896C676.078 188.663 676.401 188.608 676.634 188.773ZM675.468 190.42C675.701 190.585 675.756 190.907 675.591 191.14L674.813 192.238C674.648 192.471 674.326 192.526 674.092 192.361C673.859 192.196 673.804 191.873 673.969 191.64L674.747 190.543C674.912 190.31 675.235 190.255 675.468 190.42ZM673.913 192.615C674.146 192.78 674.201 193.103 674.036 193.336L673.258 194.434C673.093 194.667 672.771 194.722 672.538 194.557C672.304 194.392 672.249 194.069 672.414 193.836L673.192 192.738C673.357 192.505 673.68 192.45 673.913 192.615ZM672.358 194.81C672.591 194.976 672.646 195.298 672.481 195.531L671.704 196.629C671.538 196.862 671.216 196.917 670.983 196.752C670.75 196.587 670.694 196.264 670.86 196.031L671.637 194.934C671.802 194.7 672.125 194.645 672.358 194.81ZM670.803 197.006C671.036 197.171 671.091 197.494 670.926 197.727L670.149 198.824C669.984 199.058 669.661 199.113 669.428 198.948C669.195 198.783 669.14 198.46 669.305 198.227L670.082 197.129C670.247 196.896 670.57 196.841 670.803 197.006ZM669.248 199.201C669.481 199.366 669.536 199.689 669.371 199.922L668.594 201.02C668.429 201.253 668.106 201.308 667.873 201.143C667.64 200.978 667.585 200.655 667.75 200.422L668.527 199.324C668.692 199.091 669.015 199.036 669.248 199.201ZM667.693 201.397C667.926 201.562 667.981 201.885 667.816 202.118L667.039 203.215C666.874 203.448 666.551 203.504 666.318 203.338C666.085 203.173 666.03 202.851 666.195 202.618L666.972 201.52C667.137 201.287 667.46 201.232 667.693 201.397ZM666.138 203.592C666.371 203.757 666.426 204.08 666.261 204.313L665.484 205.411C665.319 205.644 664.996 205.699 664.763 205.534C664.53 205.369 664.475 205.046 664.64 204.813L665.417 203.715C665.582 203.482 665.905 203.427 666.138 203.592ZM664.583 205.788C664.816 205.953 664.871 206.275 664.706 206.508L663.929 207.606C663.764 207.839 663.441 207.894 663.208 207.729C662.975 207.564 662.92 207.241 663.085 207.008L663.862 205.911C664.027 205.678 664.35 205.622 664.583 205.788ZM663.028 207.983C663.261 208.148 663.317 208.471 663.151 208.704L662.374 209.802C662.209 210.035 661.886 210.09 661.653 209.925C661.42 209.76 661.365 209.437 661.53 209.204L662.307 208.106C662.472 207.873 662.795 207.818 663.028 207.983ZM661.473 210.178C661.706 210.343 661.762 210.666 661.597 210.899L660.819 211.997C660.654 212.23 660.331 212.285 660.098 212.12C659.865 211.955 659.81 211.632 659.975 211.399L660.752 210.302C660.918 210.068 661.24 210.013 661.473 210.178ZM659.918 212.374C660.152 212.539 660.207 212.862 660.042 213.095L659.264 214.192C659.099 214.426 658.776 214.481 658.543 214.316C658.31 214.151 658.255 213.828 658.42 213.595L659.198 212.497C659.363 212.264 659.685 212.209 659.918 212.374ZM658.364 214.569C658.597 214.734 658.652 215.057 658.487 215.29L657.709 216.388C657.544 216.621 657.221 216.676 656.988 216.511C656.755 216.346 656.7 216.023 656.865 215.79L657.643 214.692C657.808 214.459 658.13 214.404 658.364 214.569ZM656.809 216.765C657.042 216.93 657.097 217.253 656.932 217.486L656.154 218.583C655.989 218.816 655.666 218.872 655.433 218.706C655.2 218.541 655.145 218.219 655.31 217.986L656.088 216.888C656.253 216.655 656.576 216.6 656.809 216.765ZM655.254 218.96C655.487 219.125 655.542 219.448 655.377 219.681L654.599 220.779C654.434 221.012 654.112 221.067 653.878 220.902C653.645 220.737 653.59 220.414 653.755 220.181L654.533 219.083C654.698 218.85 655.021 218.795 655.254 218.96ZM653.699 221.156C653.932 221.321 653.987 221.643 653.822 221.876L653.044 222.974C652.879 223.207 652.557 223.262 652.324 223.097C652.09 222.932 652.035 222.609 652.2 222.376L652.978 221.279C653.143 221.046 653.466 220.99 653.699 221.156ZM652.144 223.351C652.377 223.516 652.432 223.839 652.267 224.072L651.489 225.17C651.324 225.403 651.002 225.458 650.769 225.293C650.536 225.128 650.48 224.805 650.645 224.572L651.423 223.474C651.588 223.241 651.911 223.186 652.144 223.351ZM650.589 225.546C650.822 225.711 650.877 226.034 650.712 226.267L649.935 227.365C649.77 227.598 649.447 227.653 649.214 227.488C648.981 227.323 648.925 227 649.091 226.767L649.868 225.67C650.033 225.436 650.356 225.381 650.589 225.546ZM649.034 227.742C649.267 227.907 649.322 228.23 649.157 228.463L648.38 229.56C648.215 229.794 647.892 229.849 647.659 229.684C647.426 229.518 647.371 229.196 647.536 228.963L648.313 227.865C648.478 227.632 648.801 227.577 649.034 227.742ZM647.479 229.937C647.712 230.102 647.767 230.425 647.602 230.658L646.825 231.756C646.66 231.989 646.337 232.044 646.104 231.879C645.871 231.714 645.816 231.391 645.981 231.158L646.758 230.06C646.923 229.827 647.246 229.772 647.479 229.937ZM645.924 232.133C646.157 232.298 646.212 232.62 646.047 232.854L645.27 233.951C645.105 234.184 644.782 234.239 644.549 234.074C644.316 233.909 644.261 233.587 644.426 233.353L645.203 232.256C645.368 232.023 645.691 231.968 645.924 232.133ZM644.369 234.328C644.602 234.493 644.657 234.816 644.492 235.049L643.715 236.147C643.55 236.38 643.227 236.435 642.994 236.27C642.761 236.105 642.706 235.782 642.871 235.549L643.648 234.451C643.813 234.218 644.136 234.163 644.369 234.328ZM642.814 236.524C643.047 236.689 643.102 237.011 642.937 237.244L642.16 238.342C641.995 238.575 641.672 238.63 641.439 238.465C641.206 238.3 641.151 237.977 641.316 237.744L642.093 236.647C642.258 236.414 642.581 236.358 642.814 236.524ZM641.259 238.719C641.492 238.884 641.548 239.207 641.382 239.44L640.605 240.538C640.44 240.771 640.117 240.826 639.884 240.661C639.651 240.496 639.596 240.173 639.761 239.94L640.538 238.842C640.704 238.609 641.026 238.554 641.259 238.719ZM639.704 240.914C639.938 241.079 639.993 241.402 639.828 241.635L639.05 242.733C638.885 242.966 638.562 243.021 638.329 242.856C638.096 242.691 638.041 242.368 638.206 242.135L638.984 241.037C639.149 240.804 639.471 240.749 639.704 240.914ZM638.15 243.11C638.383 243.275 638.438 243.598 638.273 243.831L637.495 244.928C637.33 245.161 637.007 245.217 636.774 245.052C636.541 244.886 636.486 244.564 636.651 244.331L637.429 243.233C637.594 243 637.916 242.945 638.15 243.11ZM636.595 245.305C636.828 245.47 636.883 245.793 636.718 246.026L635.94 247.124C635.775 247.357 635.452 247.412 635.219 247.247C634.986 247.082 634.931 246.759 635.096 246.526L635.874 245.428C636.039 245.195 636.362 245.14 636.595 245.305ZM635.04 247.501C635.273 247.666 635.328 247.988 635.163 248.222L634.385 249.319C634.22 249.552 633.897 249.607 633.664 249.442C633.431 249.277 633.376 248.955 633.541 248.721L634.319 247.624C634.484 247.391 634.807 247.336 635.04 247.501ZM633.485 249.696C633.718 249.861 633.773 250.184 633.608 250.417L632.83 251.515C632.665 251.748 632.343 251.803 632.109 251.638C631.876 251.473 631.821 251.15 631.986 250.917L632.764 249.819C632.929 249.586 633.252 249.531 633.485 249.696ZM631.93 251.891C632.163 252.057 632.218 252.379 632.053 252.612L631.275 253.71C631.11 253.943 630.788 253.998 630.555 253.833C630.321 253.668 630.266 253.345 630.431 253.112L631.209 252.015C631.374 251.782 631.697 251.726 631.93 251.891ZM630.375 254.087C630.608 254.252 630.663 254.575 630.498 254.808L629.721 255.906C629.555 256.139 629.233 256.194 629 256.029C628.767 255.864 628.711 255.541 628.877 255.308L629.654 254.21C629.819 253.977 630.142 253.922 630.375 254.087ZM628.82 256.282C629.053 256.447 629.108 256.77 628.943 257.003L628.166 258.101C628.001 258.334 627.678 258.389 627.445 258.224C627.212 258.059 627.157 257.736 627.322 257.503L628.099 256.405C628.264 256.172 628.587 256.117 628.82 256.282ZM627.265 258.478C627.498 258.643 627.553 258.966 627.388 259.199L626.999 259.748C626.834 259.981 626.512 260.036 626.278 259.871C626.045 259.706 625.99 259.383 626.155 259.15L626.544 258.601C626.709 258.368 627.032 258.313 627.265 258.478Z" fill="#B3CAF8" stroke="#2249B3" stroke-width="1"></path>
<path fill-rule="evenodd" clip-rule="evenodd" d="M704.644 252.163L705.328 252.648C705.561 252.813 705.616 253.136 705.451 253.369C705.286 253.602 704.963 253.657 704.73 253.492L704.3 253.188L703.831 253.173C703.545 253.164 703.321 252.926 703.33 252.64C703.338 252.355 703.577 252.131 703.862 252.139L704.644 252.163ZM705.721 253.56C705.886 253.327 706.209 253.272 706.442 253.437L707.556 254.226C707.789 254.391 707.844 254.714 707.679 254.947C707.514 255.18 707.191 255.235 706.958 255.07L705.844 254.281C705.611 254.116 705.556 253.793 705.721 253.56ZM707.949 255.138C708.114 254.905 708.437 254.85 708.67 255.015L709.784 255.804C710.017 255.969 710.072 256.291 709.907 256.525C709.742 256.758 709.419 256.813 709.186 256.648L708.072 255.859C707.839 255.694 707.784 255.371 707.949 255.138ZM710.177 256.716C710.342 256.483 710.664 256.427 710.898 256.593L712.011 257.381C712.245 257.547 712.3 257.869 712.135 258.102C711.97 258.335 711.647 258.391 711.414 258.225L710.3 257.437C710.067 257.271 710.011 256.949 710.177 256.716ZM712.404 258.293C712.569 258.06 712.892 258.005 713.125 258.17L714.239 258.959C714.472 259.124 714.527 259.447 714.362 259.68C714.197 259.913 713.875 259.968 713.641 259.803L712.528 259.014C712.294 258.849 712.239 258.527 712.404 258.293ZM714.632 259.871C714.797 259.638 715.12 259.583 715.353 259.748L716.467 260.537C716.7 260.702 716.755 261.025 716.59 261.258C716.425 261.491 716.102 261.546 715.869 261.381L714.755 260.592C714.522 260.427 714.467 260.104 714.632 259.871ZM716.86 261.449C717.025 261.216 717.348 261.161 717.581 261.326L718.695 262.115C718.928 262.28 718.983 262.603 718.818 262.836C718.653 263.069 718.33 263.124 718.097 262.959L716.983 262.17C716.75 262.005 716.695 261.682 716.86 261.449ZM719.088 263.027C719.253 262.794 719.576 262.739 719.809 262.904L720.366 263.298C720.599 263.464 720.654 263.786 720.489 264.019C720.324 264.252 720.001 264.308 719.768 264.142L719.211 263.748C718.978 263.583 718.923 263.26 719.088 263.027ZM703.112 252.634C703.103 252.919 702.865 253.143 702.579 253.135L701.328 253.096C701.043 253.087 700.818 252.849 700.827 252.563C700.836 252.278 701.074 252.054 701.36 252.062L702.611 252.101C702.897 252.11 703.121 252.348 703.112 252.634ZM700.61 252.557C700.601 252.842 700.362 253.066 700.077 253.058L698.825 253.019C698.54 253.01 698.316 252.772 698.324 252.486C698.333 252.201 698.572 251.977 698.857 251.985L700.108 252.024C700.394 252.033 700.618 252.271 700.61 252.557ZM698.107 252.48C698.098 252.765 697.86 252.989 697.574 252.981L696.323 252.942C696.037 252.933 695.813 252.695 695.822 252.409C695.831 252.124 696.069 251.9 696.355 251.908L697.606 251.947C697.891 251.956 698.116 252.194 698.107 252.48ZM695.201 252.891C695.426 252.841 695.597 252.644 695.604 252.403C695.613 252.117 695.389 251.879 695.103 251.87L693.698 251.827L694.205 253.138C694.308 253.404 694.608 253.537 694.874 253.434C695.099 253.347 695.228 253.12 695.201 252.891ZM694.953 253.637C695.219 253.534 695.518 253.666 695.622 253.932L696.073 255.1C696.176 255.366 696.044 255.666 695.777 255.769C695.511 255.872 695.211 255.739 695.108 255.473L694.657 254.305C694.554 254.039 694.686 253.74 694.953 253.637ZM695.856 255.972C696.122 255.869 696.422 256.001 696.525 256.268L696.976 257.435C697.079 257.702 696.947 258.001 696.68 258.104C696.414 258.207 696.115 258.075 696.012 257.808L695.56 256.641C695.457 256.374 695.589 256.075 695.856 255.972ZM696.759 258.307C697.025 258.204 697.325 258.336 697.428 258.603L697.879 259.77C697.983 260.037 697.85 260.336 697.584 260.439C697.317 260.542 697.018 260.41 696.915 260.144L696.463 258.976C696.36 258.71 696.493 258.41 696.759 258.307ZM697.662 260.642C697.929 260.539 698.228 260.672 698.331 260.938L698.501 261.376L698.93 261.681C699.163 261.846 699.219 262.169 699.054 262.402C698.888 262.635 698.566 262.69 698.333 262.525L697.648 262.04L697.366 261.311C697.263 261.045 697.396 260.745 697.662 260.642ZM699.323 262.593C699.488 262.36 699.811 262.305 700.044 262.47L701.158 263.259C701.391 263.424 701.446 263.747 701.281 263.98C701.116 264.213 700.793 264.268 700.56 264.103L699.446 263.314C699.213 263.149 699.158 262.826 699.323 262.593ZM701.551 264.171C701.716 263.938 702.039 263.883 702.272 264.048L703.386 264.837C703.619 265.002 703.674 265.324 703.509 265.557C703.344 265.791 703.021 265.846 702.788 265.681L701.674 264.892C701.441 264.727 701.386 264.404 701.551 264.171ZM703.779 265.749C703.944 265.516 704.267 265.46 704.5 265.625L705.614 266.414C705.847 266.58 705.902 266.902 705.737 267.135C705.572 267.368 705.249 267.424 705.016 267.258L703.902 266.47C703.669 266.304 703.614 265.982 703.779 265.749ZM706.007 267.326C706.172 267.093 706.495 267.038 706.728 267.203L707.842 267.992C708.075 268.157 708.13 268.48 707.965 268.713C707.8 268.946 707.477 269.001 707.244 268.836L706.13 268.047C705.897 267.882 705.842 267.56 706.007 267.326ZM708.235 268.904C708.4 268.671 708.722 268.616 708.955 268.781L710.069 269.57C710.302 269.735 710.358 270.058 710.193 270.291C710.027 270.524 709.705 270.579 709.472 270.414L708.358 269.625C708.125 269.46 708.069 269.137 708.235 268.904ZM710.462 270.482C710.627 270.249 710.95 270.194 711.183 270.359L712.297 271.148C712.53 271.313 712.585 271.636 712.42 271.869C712.255 272.102 711.932 272.157 711.699 271.992L710.585 271.203C710.352 271.038 710.297 270.715 710.462 270.482ZM712.69 272.06C712.855 271.827 713.178 271.772 713.411 271.937L713.968 272.331C714.201 272.496 714.256 272.819 714.091 273.052C713.926 273.285 713.603 273.34 713.37 273.175L712.813 272.781C712.58 272.616 712.525 272.293 712.69 272.06Z" fill="#B3CAF8" stroke="#2249B3" stroke-width="1"></path>
</g>
<path opacity="0.7" d="M547.475 58.6181L597.745 136.145C600.346 140.155 599.201 145.52 595.191 148.12L559.624 171.183C555.614 173.783 550.249 172.639 547.649 168.629L497.379 91.1015C494.779 87.0914 495.923 81.7266 499.933 79.1264L535.558 56.0263C539.51 53.4638 544.875 54.608 547.475 58.6181Z" fill="#157efb" stroke="#2249B3" stroke-width="1"></path>
<path opacity="0.7" d="M591.188 126.033L597.745 136.145C600.345 140.155 599.201 145.52 595.191 148.12L559.624 171.183C555.614 173.783 550.249 172.639 547.649 168.629L541.092 158.517L591.188 126.033Z" fill="#157efb" stroke="#2249B3" stroke-width="1"></path>
<path opacity="0.8" d="M537.309 58.8536C539.75 57.2709 543.103 57.986 544.686 60.4269L594.956 137.954C596.538 140.395 595.823 143.748 593.382 145.331L557.815 168.393C555.374 169.976 552.021 169.261 550.439 166.82L500.169 89.2926C498.586 86.8518 499.301 83.4987 501.742 81.916L537.309 58.8536ZM535.5 56.064L499.933 79.1264C495.923 81.7266 494.779 87.0914 497.379 91.1015L547.649 168.629C550.249 172.639 555.614 173.783 559.624 171.183L595.249 148.083C599.259 145.482 600.404 140.118 597.803 136.108L547.533 58.5804C544.875 54.6081 539.51 53.4638 535.5 56.064Z" fill="#157efb" stroke="#2249B3" stroke-width="1"></path>
<path opacity="0.7" d="M572.81 152.561C574.415 151.521 574.872 149.376 573.832 147.771C572.791 146.166 570.646 145.709 569.042 146.75C567.437 147.79 566.979 149.935 568.02 151.54C569.061 153.144 571.205 153.602 572.81 152.561Z" fill="#B3CAF8" stroke="#2249B3" stroke-width="1"></path>
<path d="M511.571 83.9628L504.249 88.7109L506.283 91.8492L513.606 87.1011L511.571 83.9628Z" fill="#8FE4FF" stroke="#2249B3" stroke-width="1"></path>
<path d="M543.291 62.7335L537.073 66.7656L537.751 67.8117L543.97 63.7796L543.291 62.7335Z" fill="#8FE4FF" stroke="#2249B3" stroke-width="1"></path>
<path d="M544.611 64.7686L538.393 68.8008L539.071 69.8469L545.289 65.8147L544.611 64.7686Z" fill="#8FE4FF" stroke="#2249B3" stroke-width="1"></path>
<path d="M545.93 66.8018L539.711 70.834L540.389 71.8801L546.608 67.8479L545.93 66.8018Z" fill="#8FE4FF" stroke="#2249B3" stroke-width="1"></path>
<path d="M550.285 71.7364L508.441 98.8687L519.218 115.49L561.062 88.3576L550.285 71.7364Z" fill="#157efb" stroke="#2249B3" stroke-width="1"></path>
<path d="M552.193 97.6603L531.097 111.339C529.958 112.078 529.633 113.601 530.372 114.74C531.111 115.88 532.633 116.205 533.773 115.466L554.869 101.787C556.008 101.048 556.333 99.5251 555.594 98.3856C554.855 97.2462 553.333 96.9215 552.193 97.6603Z" fill="#B3CAF8" stroke="#2249B3" stroke-width="1"></path>
<path d="M578.855 128.911L549.68 147.828L551.979 151.373L581.154 132.456L578.855 128.911Z" fill="#8FE4FF" stroke="#2249B3" stroke-width="1"></path>
<path d="M547.796 113.223L534.546 121.815L535.601 123.442L548.852 114.85L547.796 113.223Z" fill="#8FE4FF" stroke="#2249B3" stroke-width="1"></path>
<path d="M556.871 112.704L536.995 125.592L538.05 127.22L557.926 114.332L556.871 112.704Z" fill="#8FE4FF" stroke="#2249B3" stroke-width="1"></path>
<path d="M566.103 111.919L548.843 123.111L549.898 124.739L567.158 113.547L566.103 111.919Z" fill="#8FE4FF" stroke="#2249B3" stroke-width="1"></path>
<path d="M546.983 124.317L539.369 129.253L540.425 130.881L548.038 125.944L546.983 124.317Z" fill="#8FE4FF" stroke="#2249B3" stroke-width="1"></path>
<path d="M568.536 115.543L561.097 120.367L562.152 121.994L569.591 117.17L568.536 115.543Z" fill="#8FE4FF" stroke="#2249B3" stroke-width="1"></path>
<path d="M559.179 121.61L551.217 126.772L552.272 128.4L560.234 123.237L559.179 121.61Z" fill="#8FE4FF" stroke="#2249B3" stroke-width="1"></path>
<path d="M549.357 127.979L541.744 132.916L542.799 134.543L550.412 129.606L549.357 127.979Z" fill="#8FE4FF" stroke="#2249B3" stroke-width="1"></path>
<path d="M550.261 138.538L548.692 139.555C548.052 139.97 547.248 139.748 546.871 139.167L545.854 137.598C545.439 136.959 545.661 136.155 546.242 135.778L547.811 134.76C548.451 134.346 549.255 134.567 549.631 135.148L550.649 136.718C551.084 137.261 550.9 138.123 550.261 138.538Z" fill="#8FE4FF" stroke="#2249B3" stroke-width="1"></path>
<path d="M555.201 135.335L553.632 136.353C552.992 136.767 552.188 136.546 551.811 135.964L550.794 134.395C550.379 133.756 550.601 132.952 551.182 132.575L552.751 131.558C553.39 131.143 554.195 131.365 554.571 131.946L555.589 133.515C555.966 134.096 555.84 134.921 555.201 135.335Z" fill="#8FE4FF" stroke="#2249B3" stroke-width="1"></path>
<path d="M560.141 132.132L558.571 133.149C557.932 133.564 557.128 133.342 556.751 132.761L555.734 131.192C555.319 130.553 555.541 129.749 556.122 129.372L557.691 128.354C558.33 127.94 559.135 128.161 559.511 128.743L560.529 130.312C560.906 130.893 560.722 131.755 560.141 132.132Z" fill="#8FE4FF" stroke="#2249B3" stroke-width="1"></path>
<path d="M565.022 128.965L563.453 129.983C562.814 130.397 562.01 130.176 561.633 129.595L560.615 128.026C560.201 127.386 560.422 126.582 561.004 126.205L562.573 125.188C563.212 124.773 564.016 124.995 564.393 125.576L565.41 127.145C565.845 127.689 565.662 128.551 565.022 128.965Z" fill="#8FE4FF" stroke="#2249B3" stroke-width="1"></path>
<path d="M569.963 125.762L568.394 126.78C567.754 127.194 566.95 126.973 566.574 126.392L565.556 124.822C565.142 124.183 565.363 123.379 565.944 123.002L567.513 121.985C568.153 121.57 568.957 121.792 569.334 122.373L570.351 123.942C570.786 124.486 570.602 125.348 569.963 125.762Z" fill="#8FE4FF" stroke="#2249B3" stroke-width="1"></path>
<path d="M90.2195 98.0168L72.9148 77.1372L159.604 89.0381L74.566 136.516L90.2195 98.0168Z" fill="#157efb" stroke="#2249B3" stroke-width="1"></path>
<path d="M78.1016 108.224L91.1624 97.8945L157.714 89.2822L78.1016 108.224Z" fill="#8FE4FF" stroke="#2249B3" stroke-width="1"></path>
<path d="M15 145.464C15 111.563 68.2337 107.495 72.9135 106.827" stroke="#2249B3" stroke-width="1" stroke-dasharray="3.75 3.75"></path>
<path d="M470.205 197.646V184.949L465.4 176.37C465.4 176.37 489.708 178.428 503.49 184.949C529.532 197.27 540.234 214.58 551.189 241.226C560.038 262.751 558.578 276.991 559.424 300.248C560.393 326.851 554.794 341.586 553.934 368.193C553.358 386.007 555.138 396.049 553.934 413.832C552.515 434.783 567.025 466.216 546.041 467.021C527.768 467.722 525.085 456.917 516.187 440.941C511.58 432.668 506.579 430.99 505.892 417.95C505.206 404.91 535.06 370.595 535.06 337.652C535.06 333.406 540.894 340.74 543.982 335.936L551.783 315.69L553.934 290.297C549.221 273.482 539.521 292.356 539.521 305.052C539.521 317.749 527.511 265.933 527.511 265.933C527.511 265.933 516.339 230.476 501.775 220.294C490.066 212.108 470.205 197.646 470.205 197.646Z" fill="black" stroke="#2249B3" stroke-width="1"></path>
<path d="M475.695 197.646C488.734 197.646 505.686 207.254 508.98 209.999C513.098 213.431 531.972 247.06 531.972 253.579C531.972 260.099 537.119 276.504 537.119 284.463C537.119 292.356 538.034 304.824 538.835 307.111L540.55 293.728L542.609 287.552C543.524 285.607 546.199 282.626 549.129 282.404C553.651 282.063 555.306 286.522 555.306 293.728C555.306 301.309 555.649 305.052 553.59 308.827C551.531 322.21 551.067 321.665 549.129 325.298C546.384 330.446 546.384 337.58 542.609 339.368C536.089 342.456 538.835 337.995 537.119 343.142C535.403 348.29 531.285 362.016 528.883 370.938C527.348 376.639 515.5 397.017 510.353 403.537C510.353 403.537 507.693 416.941 510.353 424.813C513.843 435.14 528.803 434.185 529.57 445.059C530.21 454.149 524.783 458.964 518.589 465.648C506.634 478.548 493.169 477.38 475.695 479.374C455.183 481.715 436.139 489.278 423.192 473.197C418.413 467.262 416.084 462.933 415.3 455.353C413.924 442.06 428.441 437.978 430.741 424.813C432.102 417.024 430.741 404.567 430.741 404.567C426.624 399.076 417.702 388.095 415.3 378.144C412.898 368.193 405.367 355.213 401.917 344.515C398.485 333.877 398.199 321.867 399.171 316.033C399.515 313.974 398.166 311.572 396.083 304.023C393.338 294.072 400.132 266.619 405.348 253.579C409.466 243.285 418.388 223.039 423.192 218.235C427.996 213.431 431.771 208.626 445.154 203.479C455.645 199.444 464.37 197.646 475.695 197.646Z" fill="#F8BCBF" stroke="#2249B3" stroke-width="1"></path>
<path d="M549.129 282.405C553.651 282.063 555.306 286.522 555.306 293.729C555.306 301.309 555.649 305.053 553.59 308.827C551.532 322.21 551.067 321.665 549.129 325.299C546.384 330.446 546.384 337.58 542.61 339.368C536.09 342.456 538.835 337.995 537.119 343.143C535.403 348.29 531.285 362.016 528.883 370.938C527.827 374.86 521.89 385.729 516.612 394.254C514.92 397.666 512.856 400.909 510.353 403.538C511.959 401.503 514.218 398.12 516.612 394.254C521.972 383.442 523.597 370.938 523.597 370.938C523.597 370.938 527.788 356.745 531.489 348.633C533.306 344.653 537.119 339.368 537.119 339.368L541.784 331.475C541.784 331.475 545.57 322.14 547.961 314.318C549.795 308.315 551.392 298.19 551.392 298.19L549.129 282.405Z" fill="black" fill-opacity="0.07" stroke="#2249B3" stroke-width="1"></path>
<path d="M428.829 402.045C429.536 402.976 430.183 403.822 430.742 404.567C429.992 403.652 429.36 402.817 428.829 402.045C424.323 396.116 417.376 386.746 415.3 378.144C412.898 368.193 405.368 355.213 401.917 344.515C398.485 333.877 398.199 321.867 399.172 316.034L405.348 336.28L411.729 359.614C411.729 359.614 426.828 373.939 426.828 385.694C426.828 393.638 424.511 395.777 428.829 402.045Z" fill="black" fill-opacity="0.07" stroke="#2249B3" stroke-width="1"></path>
<path d="M505.206 317.878C508.98 309.986 525.795 293.858 533.687 297.289C541.58 300.721 536.776 315.476 530.256 347.39C526.181 367.337 515.157 396.46 509.324 394.058C503.49 391.656 498.686 370.443 498.686 353.566C498.686 341.213 501.431 325.771 505.206 317.878Z" fill="white" fill-opacity="0.05" stroke="#2249B3" stroke-width="1"></path>
<path d="M539.521 310.886C539.842 307.22 541.237 301.621 541.237 301.621C541.237 301.621 547.472 308.953 545.698 313.631C544.521 316.734 539.521 319.465 539.521 319.465C539.521 319.465 539.229 314.224 539.521 310.886Z" fill="#CF8572" stroke="#2249B3" stroke-width="1"></path>
<path d="M455.449 352.408C457.508 353.781 460.393 354.323 459.567 357.212C458.881 359.614 453.29 359.958 449.616 357.212C446.925 355.202 445.667 353.597 444.811 350.349C443.469 345.254 445.87 341.718 447.214 336.623C448.698 330.991 452.018 322.897 452.018 322.897C452.018 322.897 451.369 330.326 451.331 334.221C451.278 339.756 449.959 341.77 451.331 346.575C452.191 349.583 452.846 350.673 455.449 352.408Z" fill="black" fill-opacity="0.05" stroke="#2249B3" stroke-width="1"></path>
<path d="M480.499 354.467C477.903 355.846 476.339 358.709 473.636 357.555C471.48 356.635 470.971 354.714 470.547 352.408C470.33 351.222 470.238 350.485 470.547 349.32C471.311 346.444 475.986 347.741 476.724 344.859C477.272 342.718 476.274 341.377 475.352 339.368C473.612 335.579 468.83 335.86 467.802 331.819C467.307 329.871 467.563 328.668 467.802 326.672C468.206 323.306 469.518 318.436 470.547 318.436C471.577 318.436 473.293 326.672 473.293 326.672L479.813 331.819C479.813 331.819 483.091 335.348 484.617 337.996C486.269 340.863 487.912 342.585 487.705 345.888C487.562 348.174 487.105 349.613 485.646 351.379C484.153 353.186 482.569 353.367 480.499 354.467Z" fill="black" fill-opacity="0.05" stroke="#2249B3" stroke-width="1"></path>
<path d="M475.352 349.663C473.062 349.663 471.577 352.751 472.95 353.781C474.322 354.81 477.411 350.693 477.411 350.693C477.411 350.693 477.411 349.663 475.352 349.663Z" fill="black" fill-opacity="0.51" stroke="#2249B3" stroke-width="1"></path>
<path d="M454.419 353.781C456.293 353.719 456.939 355.262 456.478 356.183C455.792 357.556 451.331 356.526 451.331 355.497C451.331 354.467 452.302 353.851 454.419 353.781Z" fill="black" fill-opacity="0.51" stroke="#2249B3" stroke-width="1"></path>
<path d="M501.774 201.42C487.991 194.899 470.065 195.93 470.065 195.93L465.947 208.626C472.123 213.34 495.741 224.312 501.774 228.529C516.339 238.711 527.511 265.933 527.511 265.933L538.148 304.366C538.148 304.366 547.07 273.482 541.58 246.03C536.089 218.578 527.816 213.741 501.774 201.42Z" fill="black" stroke="#2249B3" stroke-width="1"></path>
<path d="M505.103 188.475C491.321 181.953 469.986 175.778 469.986 175.778L465.868 188.475C472.044 193.188 494.258 194.886 515.432 214.511C528.466 226.591 545.386 264.606 545.386 264.606L552.616 278.55C552.616 278.55 550.876 272.95 545.386 245.498C539.895 218.045 531.145 200.796 505.103 188.475Z" fill="white" fill-opacity="0.1" stroke="#2249B3" stroke-width="1"></path>
<path d="M303.275 279.322C303.275 279.322 308.334 291.656 311.535 299.337C314.712 306.962 319.6 307.586 320.43 313.951C321.384 321.259 320.306 322.585 320.748 329.519C321.226 337.014 322.975 341.077 323.29 348.581C323.435 352.052 323.78 354.037 323.29 357.477C322.481 363.156 320.43 371.967 320.43 371.967C320.43 371.967 316.115 390.725 308.922 400.106C304.001 406.525 300.931 408.681 295.332 414.518C286.226 424.011 284.716 422.965 276.27 433.048C271.42 438.839 266.103 448.147 261.567 456.383C256.618 465.368 253.994 474.948 248.871 483.835C239.032 500.902 235.243 508.885 228.625 527.416C224.7 538.403 212.808 565.422 212.094 574.174C211.913 576.4 212.094 579.893 212.094 579.893H131.716C131.716 579.893 153.785 518.242 166.028 498.536C181.04 474.371 203.834 436.266 203.834 436.266C203.834 436.266 204.469 429.277 208.282 422.605C212.094 415.934 216.504 408.901 218.33 400.106C220.225 390.979 216.626 389.103 214.954 379.517C213.205 369.494 213.199 363.778 212.094 353.664C211.521 348.412 209.311 345.574 209.87 340.321C210.436 335.006 211.07 331.286 214.954 327.613C218.185 324.556 221.527 325.283 225.438 323.165C235.323 317.812 237.243 309.827 246.724 303.785C254.214 299.011 264.566 302.68 267.374 294.254C269.598 287.582 263.632 274.542 264.197 259.466C264.44 252.989 264.63 245.128 266.103 238.816C267.424 233.159 267.71 233.766 269.281 228.173C270.787 222.809 269.376 220.579 273.411 216.736C275.34 214.899 276.156 214.307 278.812 214.512C282.864 214.825 286.436 224.043 286.436 224.043C286.436 224.043 287.718 230.053 287.389 236.91C287.061 243.766 285.434 245.48 285.483 250.253C285.516 253.377 285.174 254.769 285.483 257.878C286.294 266.035 285.539 267.362 286.436 275.51C287.249 282.889 290.249 295.525 290.249 295.525L293.426 288.535C293.426 288.535 294.972 280.841 297.874 279.322C300.072 278.171 303.275 279.322 303.275 279.322Z" fill="#F8BCBF" stroke="#2249B3" stroke-width="1"></path>
<path d="M264.197 259.466C263.632 274.542 266.103 287.582 267.374 294.254C268.645 300.926 265.15 309.186 265.15 309.186L286.436 311.41L286.436 275.51C285.539 267.362 286.293 266.035 285.483 257.878C285.174 254.769 285.516 253.377 285.483 250.253C285.433 245.48 287.06 243.766 287.389 236.91C287.718 230.053 286.436 224.043 286.436 224.043C286.436 224.043 282.863 214.825 278.811 214.512C276.155 214.307 275.339 214.899 273.41 216.736C269.376 220.579 270.787 222.809 269.28 228.173C267.71 233.766 267.423 233.159 266.103 238.816C264.63 245.128 264.44 252.989 264.197 259.466Z" fill="white" fill-opacity="0.18" stroke="#2249B3" stroke-width="1"></path>
<path d="M286.436 224.043C286.436 224.043 282.863 214.825 278.811 214.512C278.811 214.512 284.561 223.408 285.483 230.004C286.634 238.235 283.034 251.286 283.034 251.286L277.353 249.629L283.034 253.76C283.034 253.76 283.294 261.163 283.034 264.606C282.56 270.863 281.779 269.361 283.034 275.509C283.583 278.201 273.998 283.331 274.771 291.461C275.384 297.92 286.436 307.987 286.436 307.987L286.436 275.509C285.539 267.362 286.293 267.068 285.483 258.911C285.174 255.802 285.516 254.41 285.483 251.286C285.433 246.513 287.06 243.766 287.389 236.909C287.718 230.053 286.436 224.043 286.436 224.043Z" fill="black" fill-opacity="0.05" stroke="#2249B3" stroke-width="1"></path>
<path d="M247.041 347.628C248.948 345.086 251.807 342.545 251.807 342.545C253.395 344.133 259.858 312.982 261.973 314.587C264.939 316.836 277.646 320.343 280.4 322.847C294.379 335.555 272.457 362.877 272.457 362.877C272.457 362.877 270.07 364.58 268.963 366.055C266.244 369.675 267.057 377.492 267.057 377.492C267.057 377.492 265.723 372.311 265.468 368.914C265.292 366.563 266.103 362.983 263.244 364.466C260.385 365.949 261.104 366.591 258.479 369.867C254.295 375.089 255.619 375.268 254.666 380.351C253.713 385.434 247.994 393.695 247.994 393.695C247.994 393.695 247.202 390.429 247.041 388.294C246.553 381.812 250.492 379.013 249.583 373.044C249.234 370.753 247.994 367.325 247.994 367.325C247.994 367.325 246.3 365.92 244.817 366.055C240.753 366.423 237.193 367.325 237.193 367.325C237.193 367.325 241.862 362.506 244.817 359.383C248.197 355.812 250.854 352.076 250.854 352.076H247.041C247.041 352.076 240.684 354.226 234.969 354.617C230.608 354.916 223.849 353.346 223.849 353.346C223.849 353.346 233.579 353.844 239.416 352.076C243.348 350.885 245.135 350.169 247.041 347.628Z" fill="black" fill-opacity="0.07" stroke="#2249B3" stroke-width="1"></path>
<path d="M311.852 299.531C308.652 291.85 303.592 279.516 303.592 279.516C303.592 279.516 300.389 278.365 298.191 279.516C295.289 281.035 293.743 288.729 293.743 288.729L290.566 295.719C290.566 295.719 291.457 300.828 292.472 303.979C292.918 305.361 293.304 306.089 293.743 307.474C294.89 311.092 293.839 313.668 295.649 317.005C296.454 318.488 297.447 318.985 298.191 320.499C300.106 324.397 297.402 327.349 298.191 331.619C298.662 334.166 299.899 335.39 300.097 337.973C300.298 340.597 300.011 342.16 299.144 344.645C298.833 345.537 298.585 346.01 298.191 346.869C293.073 358.039 280.4 360.847 276.587 369.743C272.775 378.639 272.775 383.404 272.775 384.675C272.775 385.946 272.775 397.065 274.046 403.419C275.317 409.773 292.472 413.268 292.472 413.268C298.072 407.431 301.53 406.026 306.451 399.607C313.644 390.226 318.206 371.332 318.206 371.332C318.206 371.332 322.798 363.35 323.607 357.67C324.097 354.231 323.753 352.246 323.607 348.775C323.293 341.271 321.544 337.208 321.066 329.713C320.623 322.779 321.701 321.452 320.748 314.145C319.918 307.78 315.029 307.156 311.852 299.531Z" fill="#FEC5C8" stroke="#2249B3" stroke-width="1"></path>
<path d="M311.852 299.531C308.652 291.85 303.592 279.516 303.592 279.516C303.592 279.516 300.389 278.365 298.191 279.516C295.289 281.035 293.743 288.729 293.743 288.729L290.566 295.719C290.566 295.719 291.457 300.828 292.472 303.979C292.918 305.361 293.304 306.089 293.743 307.474C294.89 311.092 293.839 313.668 295.649 317.005C296.454 318.488 297.447 318.985 298.191 320.499C300.106 324.397 297.402 327.349 298.191 331.619C298.662 334.166 299.899 335.39 300.097 337.973C300.298 340.597 300.011 342.16 299.144 344.645C298.833 345.537 298.585 346.01 298.191 346.869C293.073 358.039 280.4 360.847 276.587 369.743C272.775 378.639 272.775 383.404 272.775 384.675C272.775 385.946 272.775 397.065 274.046 403.419C275.317 409.773 295.649 414.518 295.649 414.518C301.249 408.681 302.971 407.554 307.892 401.135C315.085 391.755 319.216 374.369 319.216 374.369C319.216 374.369 322.798 363.35 323.607 357.67C324.097 354.231 323.753 352.246 323.607 348.775C323.293 341.271 321.544 337.208 321.066 329.713C320.623 322.779 321.066 321.452 320.112 314.145C319.282 307.78 315.029 307.156 311.852 299.531Z" fill="#FEC5C8" stroke="#2249B3" stroke-width="1"></path>
<path d="M303.274 279.322C303.274 279.322 308.334 291.656 311.535 299.337C314.712 306.962 319.6 307.586 320.43 313.951C321.383 321.258 320.941 322.585 321.383 329.519C321.827 336.468 323.362 340.467 323.834 346.994C324.269 348.434 324.446 350.054 324.121 352.075C324.212 353.783 324.227 355.352 323.925 357.476C323.116 363.156 320.43 371.458 320.43 371.458C320.43 371.458 319.442 375.334 317.488 380.546C315.298 386.387 312.101 393.653 309.311 399.413C307.748 401.837 306.134 403.977 304.329 405.673C300.627 409.867 297.087 412.959 295.196 413.832C292.451 415.099 274.999 409.579 273.728 403.225C272.457 396.871 272.457 385.752 272.457 384.481C272.457 383.21 272.457 378.445 276.27 369.549C280.082 360.653 292.756 357.845 297.873 346.674C298.267 345.815 298.515 345.343 298.826 344.451C299.694 341.966 299.981 340.403 299.78 337.779C299.582 335.196 298.344 333.972 297.873 331.425C297.084 327.155 299.788 324.203 297.873 320.305C297.129 318.791 296.137 318.294 295.332 316.811C293.521 313.474 294.572 310.898 293.426 307.28C292.987 305.895 292.6 305.167 292.155 303.785C291.14 300.634 290.249 295.525 290.249 295.525L293.426 288.535C293.426 288.535 298.347 292.324 297.873 295.525C297.536 297.808 294.697 298.004 294.379 300.29C294.07 302.505 296.285 305.691 296.285 305.691L304.862 309.186C304.808 309.164 299.498 307.01 297.873 309.186C296.252 311.357 298.297 313.589 299.78 315.857C302.579 320.139 311.852 320.941 311.852 320.941C311.852 320.941 306.134 322.211 304.863 322.211H302.004C302.004 322.211 303.409 326.625 303.274 329.519C303.168 331.804 302.004 335.237 302.004 335.237L309.311 342.227L302.004 341.274L300.733 344.451L309.311 357.476C309.311 357.476 304.062 354.966 302.004 352.075C301.262 351.035 300.415 349.216 300.415 349.216C300.415 349.216 297.288 353.261 295.332 355.888C293.316 358.595 292.585 360.442 290.249 362.877C287.173 366.083 283.861 366.121 281.035 369.549C278.246 372.932 277.367 375.47 276.27 379.715C275.611 382.264 275.562 383.767 275.317 386.387C274.841 391.452 272.494 395.181 275.317 399.413C277.36 402.477 281.186 405.833 284.558 407.312C293.917 411.417 299.74 409.983 304.329 405.673C306.002 403.777 307.708 401.656 309.311 399.413C312.023 393.808 315.312 386.349 317.488 380.546C319.965 373.939 321.213 368.211 322.952 362.016C323.782 359.06 323.634 355.106 324.121 352.075C324.065 351.018 323.981 349.908 323.925 348.581C323.902 348.034 323.872 347.506 323.834 346.994C322.686 343.19 319.739 340.637 319.477 335.237C319.092 327.297 321.072 322.434 318.524 314.904C316.362 308.513 312.172 306.4 309.311 300.29C305.697 292.573 303.274 279.322 303.274 279.322Z" fill="black" fill-opacity="0.07" stroke="#2249B3" stroke-width="1"></path>
<path d="M309.336 306.756C305.229 310.821 300.304 306.882 295.357 303.897C288.919 300.011 285.469 289.966 282.966 288.965C281.378 288.329 277.165 287.771 274.706 289.918C273.251 291.188 274.706 296.447 274.706 301.037V314.381L269.624 314.82L248.972 316.605C248.972 316.605 247.715 306.017 247.702 294.365C247.688 282.899 248.548 271.643 255.009 270.856C268.034 269.267 289.956 268.314 291.862 268.314C293.768 268.314 299.805 270.856 302.029 277.21C303.033 280.08 303.453 281.9 304.252 284.834C306.137 291.75 310.606 297.364 310.606 304.532C310.606 306.756 311.153 304.956 309.336 306.756Z" fill="#FFD2D4" stroke="#2249B3" stroke-width="1"></path>
<path d="M283.686 288.922C286.189 289.923 289.638 299.968 296.076 303.854C296.076 303.854 295.189 290.712 289.217 286.602C285.253 283.875 281.876 282.699 277.206 283.857C274.173 284.609 272.233 285.485 270.343 287.975C267.268 292.024 270.343 295.91 270.343 300.994V314.777L275.425 314.338V300.994C275.425 296.404 273.97 291.146 275.425 289.875C277.884 287.728 282.097 288.286 283.686 288.922Z" fill="black" fill-opacity="0.07" stroke="#2249B3" stroke-width="1"></path>
<path d="M246.883 319.865C237.669 322.406 226.708 322.132 226.708 322.132C226.708 322.132 234.512 314.312 244.3 305.921C254.538 297.144 262.609 288.065 268.963 289.17C275.255 290.265 279.99 297.604 286.252 307.311L286.436 307.597C290.632 313.439 296.099 320.178 297.238 326.977C298.182 332.607 297.98 338.52 297.556 341.591C297.132 344.662 295.967 350.804 295.967 350.804C295.967 350.804 295.332 353.981 292.473 354.617C289.613 355.252 287.389 352.393 287.389 352.393C284.848 349.216 281.761 343.502 281.035 336.826C280.794 334.605 281.141 333.073 280.082 331.107C277.858 326.977 272.458 322.211 267.057 318.399C266.156 317.763 259.937 318.399 257.208 318.399C253.395 318.399 250.013 319.001 246.883 319.865Z" fill="#F9CACC" stroke="#2249B3" stroke-width="1"></path>
<path d="M257.208 318.399C253.395 318.399 251.443 318.806 248.312 319.67H242.276C242.276 319.67 245.571 318.322 247.677 317.446C250.038 316.463 251.183 315.281 253.713 314.904C255.803 314.594 257.002 315.168 259.114 315.222C260.726 315.263 263.244 315.222 263.244 315.222L261.338 308.868L264.833 315.222C264.833 315.222 267.39 316.508 268.963 317.446C275.83 321.542 280.559 327.613 281.671 329.836C282.783 332.06 284.524 335.716 284.848 339.05C285.342 344.141 287.389 352.393 287.389 352.393C284.848 349.216 281.761 343.502 281.035 336.826C280.794 334.606 281.141 333.074 280.082 331.107C277.858 326.977 272.458 322.212 267.057 318.399C266.156 317.764 259.937 318.399 257.208 318.399Z" fill="black" fill-opacity="0.1" stroke="#2249B3" stroke-width="1"></path>
<path d="M228.297 325.707C226.751 325.867 226.039 324.436 224.485 324.436C219.401 324.436 217.037 324.704 213.683 328.566C210.543 332.182 211.494 333.321 211.141 338.097C210.8 342.717 214.954 348.581 214.954 348.581C214.954 348.581 217.655 352.711 221.625 352.711C226.712 352.711 230.574 354.105 235.604 353.347C240.61 352.592 243.14 351.807 247.041 348.581C249.432 346.605 251.489 341.91 252.76 343.18C254.031 344.451 259.432 348.899 265.786 353.347C269.994 356.292 272.563 361.395 274.999 364.784C274.999 364.784 278.826 369.289 281.989 370.82C284.726 372.146 286.332 373.592 288.978 372.091C291.345 370.749 291.202 369.094 291.202 366.373C291.202 361.289 288.66 355.571 283.895 347.946C281.94 344.818 280.088 340.765 277.541 338.097C270.869 331.108 267.692 324.436 261.02 319.353C259.297 318.04 256.198 318.717 254.031 318.717C245.453 318.717 237.51 324.754 228.297 325.707Z" fill="#F8BCBF" stroke="#2249B3" stroke-width="1"></path>
<path d="M289.025 344.894C289.553 342.227 291.611 341.035 293.471 341.035C295.332 341.035 296.338 342.541 296.788 343.496C297.238 344.451 295.978 350.451 295.978 350.451C295.978 350.451 295.332 354.617 291.837 354.617C289.813 354.617 288.088 353.847 288.215 351.849C288.343 349.852 288.498 347.561 289.025 344.894Z" fill="black" fill-opacity="0.2" stroke="#2249B3" stroke-width="1"></path>
<path d="M281.558 365.437C280.392 362.982 281.334 360.797 282.829 359.689C284.323 358.58 286.028 359.19 286.959 359.689C287.889 360.187 290.453 365.757 290.453 365.757C290.453 365.757 292.417 369.487 289.611 371.57C287.985 372.776 286.141 373.185 285.053 371.506C283.964 369.826 282.723 367.893 281.558 365.437Z" fill="black" fill-opacity="0.2" stroke="#2249B3" stroke-width="1"></path>
<path d="M252.76 343.18C254.031 344.451 259.432 348.899 265.786 353.346C266.833 354.079 267.778 354.945 268.645 355.885C268.645 355.885 264.541 351.276 261.656 348.581C258.371 345.512 252.76 341.274 252.76 341.274L241.323 331.743L250.854 341.591C250.854 341.591 249.139 342.227 247.995 342.227C243.865 342.227 242.23 342.023 238.781 341.274C233.752 340.181 226.391 337.144 226.391 337.144C226.391 337.144 230.48 339.934 231.474 340.321C237.193 342.545 238.014 342.552 243.229 343.498C246.424 344.077 249.266 344.133 249.266 344.133C249.266 344.133 247.563 346.21 246.088 346.992C243.239 348.504 237.828 346.992 237.828 346.992L225.756 343.498C225.756 343.498 233.38 347.492 237.193 348.581C241.005 349.67 243.229 349.216 243.865 349.216C245.042 349.216 241.005 350.169 241.005 350.169L234.969 351.122L228.297 351.758L221.625 352.711C226.712 352.711 229.939 353.151 234.969 352.393C239.975 351.639 243.14 351.807 247.042 348.581C249.432 346.604 251.489 341.909 252.76 343.18Z" fill="black" fill-opacity="0.1" stroke="#2249B3" stroke-width="1"></path>
<path d="M297.459 288.238C299.719 287.238 303.635 289.611 303.635 289.611L310.842 308.484C310.842 308.484 309.387 311.153 307.753 311.916C305.417 313.005 302.263 311.916 301.233 310.886C300.204 309.857 294.37 294.072 294.37 294.072C294.37 294.072 295.101 289.281 297.459 288.238Z" fill="black" fill-opacity="0.1" stroke="#2249B3" stroke-width="1"></path>
<path d="M487.909 422.754C501.548 416.129 506.336 409.227 510.557 403.88C510.557 403.88 507.897 420.366 510.557 428.237C510.557 428.237 524.626 439.568 544.529 444.716C557.415 448.048 590.169 459.814 590.169 459.814C590.169 459.814 606.242 464.038 615.562 473.54C637.756 496.168 629.966 521.487 631.347 553.152C631.744 562.256 631.347 579.585 631.347 579.585H590.169H309.469V542.171L289.567 579.585H209.955C209.955 579.585 233.3 524.287 254.565 494.816C272.225 470.34 274.712 450.231 301.92 437.166C312.774 431.954 319.39 428.237 331.431 428.237C350.648 428.237 364.374 433.048 390.454 434.764L427.514 437.166C434.493 437.166 432.318 430.989 432.318 424.126C432.318 416.22 430.946 404.91 430.946 404.91C435.063 410.4 443.985 421.724 456.682 425.156C463.216 426.922 475.899 428.587 487.909 422.754Z" fill="#F8BCBF" stroke="#2249B3" stroke-width="1"></path>
<path d="M487.909 422.754C501.548 416.129 506.336 409.227 510.557 403.88C510.557 403.88 505.753 432.362 487.909 440.598C478.011 445.166 460.196 459.01 450.848 464.618C437.122 472.854 424.082 464.618 424.082 464.618C424.082 464.618 416.288 463.276 415.504 455.696C414.242 443.499 426.359 439.057 430.143 428.237C430.483 427.265 430.756 426.241 430.945 425.156C432.306 417.367 430.945 404.91 430.945 404.91C435.063 410.4 443.985 421.724 456.682 425.156C463.215 426.922 475.898 428.587 487.909 422.754Z" fill="black" fill-opacity="0.1" stroke="#2249B3" stroke-width="1"></path>
<path d="M439.867 383.978C439.906 383.962 451.2 379.514 455.996 377.801C460.8 376.085 468.006 379.86 468.006 379.86C468.006 379.86 472.81 374.369 479.33 376.085C485.85 377.801 498.547 380.203 498.547 380.203C498.547 380.203 487.897 391.208 478.987 393.586C475.715 394.459 474.425 394.486 472.029 394.536C471.284 394.551 470.431 394.569 469.378 394.615C468.208 394.667 467.23 394.75 466.339 394.826L466.339 394.826C464.07 395.02 462.358 395.166 459.427 394.615C451.148 393.059 439.906 384.009 439.867 383.978Z" fill="black" fill-opacity="0.2" stroke="#2249B3" stroke-width="1"></path>
<path d="M459.427 394.616C451.134 393.057 439.867 383.978 439.867 383.978C439.867 383.978 460.457 386.38 472.124 386.38C478.987 386.38 480.221 384.924 486.193 383.978C491.777 383.094 498.547 380.204 498.547 380.204C498.547 380.204 487.897 391.208 478.987 393.587C474.697 394.732 473.815 394.422 469.379 394.616C465.228 394.798 463.51 395.383 459.427 394.616Z" fill="#FA8888" stroke="#2249B3" stroke-width="1"></path>
<path d="M467.403 388.035C463.163 388.035 457.514 383.904 456.558 388.035C456.139 389.847 457.14 389.846 457.591 391.65C458.624 395.782 463.709 392.67 467.92 392.683C472.831 392.699 480.269 394.473 479.798 389.585C479.651 388.056 478.719 389.212 477.732 388.035C475.009 384.785 471.643 388.035 467.403 388.035Z" fill="white" fill-opacity="0.05" stroke="#2249B3" stroke-width="1"></path>
<path d="M455.996 377.801C451.191 379.517 439.867 383.978 439.867 383.978C439.867 383.978 442.613 384.664 454.623 384.321C458.782 384.202 463.888 384.321 468.692 384.321C474.869 384.321 482.075 383.291 482.075 383.291L498.547 380.203C498.547 380.203 485.85 377.801 479.33 376.085C472.81 374.369 468.006 379.86 468.006 379.86C468.006 379.86 460.8 376.085 455.996 377.801Z" fill="#ED7F7F" stroke="#2249B3" stroke-width="1"></path>
<path d="M467.403 380.289C463.163 380.289 459.273 375.034 459.657 379.256C460.69 383.388 464.225 383.145 468.436 383.158C473.348 383.174 478.72 385.981 478.249 381.092C478.101 379.563 478.202 379.917 477.216 378.74C474.492 375.49 471.644 380.289 467.403 380.289Z" fill="white" fill-opacity="0.05" stroke="#2249B3" stroke-width="1"></path>
<path d="M454.623 310.543C453.289 298.791 452.907 290.64 452.907 290.64C452.907 290.64 452.907 281.982 454.623 281.718C456.338 281.454 458.741 289.61 458.741 289.61C458.741 289.61 462.858 300.591 463.545 310.543C464.299 321.487 470.331 332.916 471.437 341.769C472.124 347.26 469.035 351.583 464.574 351.721C460.113 351.859 455.836 351.027 454.623 345.201C452.907 336.965 455.838 321.248 454.623 310.543Z" fill="white" fill-opacity="0.1" stroke="#2249B3" stroke-width="1"></path>
<path d="M422.023 298.19C431.975 296.817 439.845 306.108 439.515 306.438C439.172 306.781 434.66 305.611 431.288 305.739C426.578 305.918 424.334 308.793 419.621 308.827C415.653 308.856 409.67 306.768 409.67 306.768C409.67 306.768 412.072 299.562 422.023 298.19Z" fill="white" stroke="#2249B3" stroke-width="1"></path>
<path d="M499.419 290.095C489.373 290.128 481.389 300.591 482.95 301.086C484.512 301.58 487.944 299.211 491.301 298.866C495.989 298.385 498.614 300.918 503.285 300.292C507.219 299.765 512.851 296.861 512.851 296.861C512.851 296.861 509.464 290.062 499.419 290.095Z" fill="white" stroke="#2249B3" stroke-width="1"></path>
<path d="M430.259 301.964C430.259 306.134 427.186 309.514 423.396 309.514C419.606 309.514 416.533 306.134 416.533 301.964C416.533 297.795 419.606 294.415 423.396 294.415C427.186 294.415 430.259 297.795 430.259 301.964Z" fill="#373737" stroke="#2249B3" stroke-width="1"></path>
<path d="M506.439 293.728C506.439 297.897 503.366 301.277 499.576 301.277C495.786 301.277 492.713 297.897 492.713 293.728C492.713 289.559 495.786 286.179 499.576 286.179C503.366 286.179 506.439 289.559 506.439 293.728Z" fill="#373737" stroke="#2249B3" stroke-width="1"></path>
<path d="M504.037 294.415C503.067 293.52 502.063 292.336 500.948 293.042C499.816 293.759 499.75 295.874 500.948 296.474C501.548 296.773 501.994 296.474 502.664 296.474C503.736 296.474 504.997 297.463 505.409 296.474C505.781 295.582 504.747 295.07 504.037 294.415Z" fill="#C4C4C4" stroke="#2249B3" stroke-width="1"></path>
<path d="M430.259 305.396C433.305 304.926 439.524 306.082 439.181 306.768C438.837 307.455 434.679 306.808 431.631 307.513C429.192 308.076 426.196 309.094 423.739 309.572C419.915 310.315 416.645 310.167 412.758 309.915C408.377 309.631 404.865 311.287 404.865 311.287C404.865 311.287 406.471 309.146 407.61 308.141C408.75 307.136 410.356 306.082 410.356 306.082L415.846 307.513C418.591 308.199 420.443 308.8 423.739 308.141C427.17 307.455 427.493 305.822 430.259 305.396Z" fill="black" stroke="#2249B3" stroke-width="1"></path>
<path d="M491.331 298.739C488.251 298.841 483.448 301.184 483.448 301.745C483.448 302.307 488.205 300.833 491.331 300.963C493.832 301.066 496.965 301.514 499.468 301.529C503.363 301.554 506.55 300.804 510.324 299.839C514.576 298.751 519.822 298.739 519.822 298.739C519.822 298.739 517.223 297.263 516.047 296.817C514.871 296.37 512.959 295.787 512.959 295.787L505.066 299.219C501.978 299.82 502.25 299.879 498.889 299.839C495.39 299.798 494.128 298.648 491.331 298.739Z" fill="black" stroke="#2249B3" stroke-width="1"></path>
<path d="M426.827 301.964C427.31 301.949 427.527 302.298 427.857 302.651C428.266 303.088 428.576 303.425 428.543 304.023C428.489 304.988 427.02 306.2 426.484 305.396C426.187 304.95 426.449 304.558 426.484 304.023C426.537 303.21 426.012 301.991 426.827 301.964Z" fill="#C4C4C4" stroke="#2249B3" stroke-width="1"></path>
<path d="M418.041 294.02C425.772 292.29 431.781 295.091 436.558 299.885C437.321 300.65 440.21 305.739 439.867 306.425C439.524 307.111 429.708 294.414 418.041 298.876C410.002 301.949 403.836 308.484 403.836 308.484C403.836 308.484 405.552 296.817 418.041 294.02Z" fill="#CF8572" stroke="#2249B3" stroke-width="1"></path>
<path d="M431.975 299.458C435.427 301.263 439.181 305.396 438.838 305.739C438.494 306.082 435.063 301.964 431.975 300.487C428.749 298.945 426.614 298.114 423.053 298.428C419.582 298.735 416.189 300.487 414.474 301.517C412.758 302.546 409.67 308.047 407.267 308.484C404.865 308.921 403.15 308.141 403.15 308.141C404.634 306.081 408.743 301.218 410.699 299.801C414.913 296.747 420.651 296.026 424.082 296.713C427.514 297.399 429.006 297.906 431.975 299.458Z" fill="black" stroke="#2249B3" stroke-width="1"></path>
<path d="M501.91 283.971C493.991 283.748 488.627 287.644 484.852 293.262C484.25 294.159 482.45 300.042 482.918 300.65C483.386 301.258 490.533 286.585 502.837 288.737C511.314 290.22 519.135 295.444 519.135 295.444C519.135 295.444 514.703 284.332 501.91 283.971Z" fill="#CF8572" stroke="#2249B3" stroke-width="1"></path>
<path d="M500.291 283.801C492.398 284.488 487.251 288.263 483.819 294.096C483.271 295.027 482.79 297.184 482.79 297.184C482.79 297.184 492.89 286.89 500.291 286.89C508.183 286.89 518.135 293.067 518.135 293.067C518.135 293.067 509.938 282.963 500.291 283.801Z" fill="#5A5A5A" fill-opacity="0.12" stroke="#2249B3" stroke-width="1"></path>
<path d="M418.384 294.082C426.198 292.78 432.124 295.152 436.901 299.946C437.664 300.712 438.668 302.681 438.668 302.681C438.668 302.681 429.573 295.015 419.964 296.535C412.169 297.769 404.179 307.516 404.179 307.516C404.179 307.516 408.831 295.674 418.384 294.082Z" fill="black" fill-opacity="0.1" stroke="#2249B3" stroke-width="1"></path>
<path d="M471.094 277.943C471.483 279.515 471.538 282.794 472.467 284.12C474.148 286.522 482.418 282.061 490.997 277.943C498.178 274.497 505.137 270.949 512.959 272.453C521.881 274.169 527.714 276.571 527.714 276.571C527.714 276.571 521.511 269.577 512.959 267.306C500.131 263.899 493.259 270.897 480.702 275.198C477.287 276.368 474.675 277.658 471.437 278.923L471.094 277.943Z" fill="black" stroke="#2249B3" stroke-width="1"></path>
<path d="M441.583 289.267C441.583 289.267 442.129 290.904 441.583 292.699C441.037 294.494 434.377 290.983 428.886 289.267C421.723 287.029 413.15 287.349 405.895 289.267C400.737 290.631 395.944 296.474 395.944 296.474C395.944 296.474 399.93 287.615 405.895 285.15C412.831 282.283 422.856 281.857 430.259 283.091C436.436 284.12 440.553 287.552 440.553 287.552V286.522L441.583 289.267Z" fill="black" stroke="#2249B3" stroke-width="1"></path>
<path d="M491.683 291.326C487.305 293.982 482.418 300.248 482.761 300.935C483.104 301.621 487.309 294.624 491.683 292.356C493.94 291.185 495.324 290.136 497.86 289.954C500.586 289.758 503.786 290.515 506.782 292.013C509.527 293.385 510.557 295.101 513.645 296.474C514.331 296.779 515.092 296.805 516.39 296.474C517.727 296.133 519.822 295.101 519.822 295.101C519.822 295.101 509.926 287.614 502.664 287.895C498.175 288.068 495.524 288.996 491.683 291.326Z" fill="black" stroke="#2249B3" stroke-width="1"></path>
<path d="M426.141 303.337C426.141 304.095 425.526 304.71 424.768 304.71C424.01 304.71 423.396 304.095 423.396 303.337C423.396 302.579 424.01 301.964 424.768 301.964C425.526 301.964 426.141 302.579 426.141 303.337Z" fill="black" stroke="#2249B3" stroke-width="1"></path>
<path d="M500.262 294.415C500.262 295.173 499.647 295.787 498.889 295.787C498.131 295.787 497.517 295.173 497.517 294.415C497.517 293.657 498.131 293.042 498.889 293.042C499.647 293.042 500.262 293.657 500.262 294.415Z" fill="black" stroke="#2249B3" stroke-width="1"></path>
<path d="M547.617 285.493C547.617 285.493 544.962 289.21 545.215 292.013C545.714 297.55 549.676 306.082 549.676 306.082C549.676 306.082 552.549 296.061 550.705 290.984C549.498 287.658 547.617 285.493 547.617 285.493Z" fill="#CF8572" stroke="#2249B3" stroke-width="1"></path>
<path d="M501.431 300.934C497.534 300.934 492.669 300.39 489.077 300.591C483.813 300.886 482.214 300.934 482.214 300.934C482.214 300.934 491.652 308.45 499.715 308.141C504.758 307.947 510.272 307.165 514.47 304.366C518.588 301.621 524.765 296.13 524.765 296.13C524.765 296.13 518.245 290.983 511.725 298.189C507.607 299.905 505.356 300.934 501.431 300.934Z" fill="black" fill-opacity="0.05" stroke="#2249B3" stroke-width="1"></path>
<path d="M422.614 309.329C418.722 309.514 413.836 309.201 410.258 309.573C405.015 310.118 403.419 310.242 403.419 310.242C403.419 310.242 413.535 313.46 420.378 312.871C425.406 312.438 428.604 312.479 433.632 309.835C438.012 307.532 440.308 305.739 440.308 305.739C440.308 305.739 437.908 305.853 432.767 306.098C428.735 308.007 426.535 309.142 422.614 309.329Z" fill="white" fill-opacity="0.1" stroke="#2249B3" stroke-width="1"></path>
<path d="M500.014 301.04C503.868 300.466 508.6 299.212 512.182 298.882C517.432 298.399 519.021 298.211 519.021 298.211C519.021 298.211 509.722 303.331 502.895 304.08C497.879 304.631 494.749 305.292 489.304 303.674C484.56 302.264 481.96 300.95 481.96 300.95C481.96 300.95 484.336 300.597 489.427 299.839C493.753 300.93 496.132 301.617 500.014 301.04Z" fill="white" fill-opacity="0.1" stroke="#2249B3" stroke-width="1"></path>
<path d="M425.715 306.812C433.337 303.711 440.693 306.425 440.693 306.425C440.693 306.425 436.423 313.071 428.682 315.347C423.841 316.77 419.613 317.402 414.613 316.72C407.65 315.769 402.603 311.572 402.603 311.572C402.603 311.572 403.289 308.484 407.407 307.798C414.206 306.664 419.074 309.513 425.715 306.812Z" fill="black" fill-opacity="0.05" stroke="#2249B3" stroke-width="1"></path>
<path d="M429.23 423.44C429.23 423.44 429.095 469.312 434.378 495.846C440.62 527.204 458.055 578.216 458.055 578.216C458.055 578.216 488.059 529.488 499.233 498.934C509.232 471.596 511.587 425.156 511.587 425.156C511.587 425.156 551.144 433.176 562.717 437.853C579.469 444.623 600.807 451.236 600.807 451.236C600.807 451.236 649.191 469.423 649.191 500.993C649.191 532.563 649.191 580.618 649.191 580.618H582.62H309.47V550.064L294.028 578.889L225.74 543.544C225.74 543.544 253.251 462.371 279.616 437.853C298.095 420.668 329.03 425.156 329.03 425.156C374.669 423.44 393.316 423.44 429.23 423.44Z" fill="#8FE4FF" stroke="#2249B3" stroke-width="1"></path>
<path d="M582.62 513.004C582.62 491.385 600.807 451.236 600.807 451.236C600.807 451.236 649.191 469.423 649.191 500.993V580.618H582.62V513.004Z" fill="black" fill-opacity="0.2" stroke="#2249B3" stroke-width="1"></path>
<path d="M327.314 491.385C323.559 512.326 309.47 550.064 309.47 550.064L294.028 578.889L225.74 543.544C225.74 543.544 253.251 462.371 279.616 437.853C298.095 420.668 329.03 425.156 329.03 425.156C329.03 425.156 331.571 467.642 327.314 491.385Z" fill="black" fill-opacity="0.2" stroke="#2249B3" stroke-width="1"></path>
<path d="M432.662 228.186C445.653 214.346 467.762 216.734 470.752 197.989C471.448 193.621 471.561 191.012 470.752 186.665C469.937 182.285 469.463 179.468 466.634 176.027C462.319 170.779 457.211 170.596 450.506 169.507C434.04 166.832 424.795 176.741 411.386 186.665C391.875 201.105 387.502 216.396 376.041 237.794C351.75 283.151 352.347 314.772 343.442 365.447C338.994 390.759 339.444 405.423 334.52 430.646C327.642 465.877 303.985 483.761 309.813 519.18C313.841 543.662 302.263 573.741 337.951 576.143C373.639 578.545 359.281 574.885 371.58 569.623C406.257 554.788 410.748 522.722 420.308 486.237C425.132 467.827 432.557 463.748 432.662 444.716C432.754 427.888 436.966 423.924 432.662 407.655C429.721 396.54 415.521 378.235 411.386 367.506C406.535 354.92 405.438 348.668 402.121 335.593C398.176 320.044 398.346 307.622 398.346 290.297C398.346 263.531 412.242 249.94 432.662 228.186Z" fill="black" stroke="#2249B3" stroke-width="1"></path>
<path d="M398.346 222.258C411.338 208.417 467.762 216.734 470.752 197.989C471.448 193.621 471.561 191.012 470.752 186.665C469.937 182.285 469.463 179.468 466.634 176.027C462.319 170.779 457.211 170.596 450.506 169.507C434.04 166.832 424.795 176.741 411.386 186.665C391.875 201.105 387.502 216.396 376.041 237.794C351.75 283.151 352.347 314.772 343.442 365.447C338.994 390.759 339.444 405.423 334.52 430.646C327.642 465.877 303.985 483.761 309.813 519.18C313.841 543.662 302.658 576.143 337.951 576.143C373.244 576.143 334.52 525.926 334.52 509.399C334.52 497.902 350.691 458.155 346.556 447.426C341.705 434.84 360.718 398.528 357.401 385.453C353.456 369.904 366.181 323.246 366.181 305.921C366.181 279.155 377.927 244.012 398.346 222.258Z" fill="white" fill-opacity="0.1" stroke="#2249B3" stroke-width="1"></path>
<path d="M535.268 548.291C544.8 521.769 586.741 467.994 573.701 487.21C560.662 506.427 579.386 536.654 560.662 557.213C550.541 568.326 536.516 589.304 527.719 577.116C520.909 567.681 531.333 559.242 535.268 548.291Z" fill="black" fill-opacity="0.06" stroke="#2249B3" stroke-width="1"></path>
<path d="M447.421 548.291C445.542 530.972 436.44 505.054 436.44 505.054C436.44 505.054 429.675 525.526 425.459 538.683C419.976 555.797 398.788 570.141 411.733 582.607C421.772 592.274 437.761 592.653 447.421 582.607C456.709 572.947 448.866 561.614 447.421 548.291Z" fill="black" fill-opacity="0.06" stroke="#2249B3" stroke-width="1"></path>
<defs>
<clipPath id="clip0">
<rect width="143.368" height="107.526" fill="white" transform="translate(653.973 161.834) rotate(35.3083)" stroke="#2249B3" stroke-width="1"></rect>
</clipPath>
</defs>
</svg>