<svg width="400" height="300" viewBox="0 0 800 600" fill="none" xmlns="http://www.w3.org/2000/svg" data-reactroot="">
<g clip-path="url(#clip0)">
<path opacity="0.12" fill-rule="evenodd" clip-rule="evenodd" d="M0.0288925 38.053C0.0288925 49.5093 -9.25827 58.7965 -20.7146 58.7965C-32.1708 58.7965 -41.458 49.5093 -41.458 38.053C-41.458 26.5967 -32.1708 17.3096 -20.7146 17.3096C-9.25827 17.3096 0.0288925 26.5967 0.0288925 38.053ZM65.5158 38.053C65.5158 49.5093 56.2287 58.7965 44.7724 58.7965C33.3161 58.7965 24.0289 49.5093 24.0289 38.053C24.0289 26.5967 33.3161 17.3096 44.7724 17.3096C56.2287 17.3096 65.5158 26.5967 65.5158 38.053ZM110.259 58.7965C121.716 58.7965 131.003 49.5093 131.003 38.053C131.003 26.5967 121.716 17.3096 110.259 17.3096C98.803 17.3096 89.5159 26.5967 89.5159 38.053C89.5159 49.5093 98.803 58.7965 110.259 58.7965ZM196.49 38.053C196.49 49.5093 187.203 58.7965 175.746 58.7965C164.29 58.7965 155.003 49.5093 155.003 38.053C155.003 26.5967 164.29 17.3096 175.746 17.3096C187.203 17.3096 196.49 26.5967 196.49 38.053ZM241.233 58.7965C252.689 58.7965 261.977 49.5093 261.977 38.053C261.977 26.5967 252.689 17.3096 241.233 17.3096C229.777 17.3096 220.49 26.5967 220.49 38.053C220.49 49.5093 229.777 58.7965 241.233 58.7965ZM327.464 38.053C327.464 49.5093 318.176 58.7965 306.72 58.7965C295.264 58.7965 285.977 49.5093 285.977 38.053C285.977 26.5967 295.264 17.3096 306.72 17.3096C318.176 17.3096 327.464 26.5967 327.464 38.053ZM372.207 58.7965C383.663 58.7965 392.951 49.5093 392.951 38.053C392.951 26.5967 383.663 17.3096 372.207 17.3096C360.751 17.3096 351.464 26.5967 351.464 38.053C351.464 49.5093 360.751 58.7965 372.207 58.7965ZM458.437 38.053C458.437 49.5093 449.15 58.7965 437.694 58.7965C426.238 58.7965 416.951 49.5093 416.951 38.053C416.951 26.5967 426.238 17.3096 437.694 17.3096C449.15 17.3096 458.437 26.5967 458.437 38.053ZM503.181 58.7965C514.637 58.7965 523.924 49.5093 523.924 38.053C523.924 26.5967 514.637 17.3096 503.181 17.3096C491.725 17.3096 482.437 26.5967 482.437 38.053C482.437 49.5093 491.725 58.7965 503.181 58.7965ZM589.411 38.053C589.411 49.5093 580.124 58.7965 568.668 58.7965C557.211 58.7965 547.924 49.5093 547.924 38.053C547.924 26.5967 557.211 17.3096 568.668 17.3096C580.124 17.3096 589.411 26.5967 589.411 38.053ZM634.155 58.7965C645.611 58.7965 654.898 49.5093 654.898 38.053C654.898 26.5967 645.611 17.3096 634.155 17.3096C622.698 17.3096 613.411 26.5967 613.411 38.053C613.411 49.5093 622.698 58.7965 634.155 58.7965ZM720.385 38.053C720.385 49.5093 711.098 58.7965 699.642 58.7965C688.185 58.7965 678.898 49.5093 678.898 38.053C678.898 26.5967 688.185 17.3096 699.642 17.3096C711.098 17.3096 720.385 26.5967 720.385 38.053ZM765.128 58.7965C776.585 58.7965 785.872 49.5093 785.872 38.053C785.872 26.5967 776.585 17.3096 765.128 17.3096C753.672 17.3096 744.385 26.5967 744.385 38.053C744.385 49.5093 753.672 58.7965 765.128 58.7965ZM0.0288925 169.027C0.0288925 180.483 -9.25827 189.77 -20.7146 189.77C-32.1708 189.77 -41.458 180.483 -41.458 169.027C-41.458 157.57 -32.1708 148.283 -20.7146 148.283C-9.25827 148.283 0.0288925 157.57 0.0288925 169.027ZM44.7724 189.77C56.2287 189.77 65.5158 180.483 65.5158 169.027C65.5158 157.57 56.2287 148.283 44.7724 148.283C33.3161 148.283 24.0289 157.57 24.0289 169.027C24.0289 180.483 33.3161 189.77 44.7724 189.77ZM131.003 169.027C131.003 180.483 121.716 189.77 110.259 189.77C98.803 189.77 89.5159 180.483 89.5159 169.027C89.5159 157.57 98.803 148.283 110.259 148.283C121.716 148.283 131.003 157.57 131.003 169.027ZM175.746 189.77C187.203 189.77 196.49 180.483 196.49 169.027C196.49 157.57 187.203 148.283 175.746 148.283C164.29 148.283 155.003 157.57 155.003 169.027C155.003 180.483 164.29 189.77 175.746 189.77ZM261.977 169.027C261.977 180.483 252.689 189.77 241.233 189.77C229.777 189.77 220.49 180.483 220.49 169.027C220.49 157.57 229.777 148.283 241.233 148.283C252.689 148.283 261.977 157.57 261.977 169.027ZM306.72 189.77C318.176 189.77 327.464 180.483 327.464 169.027C327.464 157.57 318.176 148.283 306.72 148.283C295.264 148.283 285.977 157.57 285.977 169.027C285.977 180.483 295.264 189.77 306.72 189.77ZM392.951 169.027C392.951 180.483 383.663 189.77 372.207 189.77C360.751 189.77 351.464 180.483 351.464 169.027C351.464 157.57 360.751 148.283 372.207 148.283C383.663 148.283 392.951 157.57 392.951 169.027ZM437.694 189.77C449.15 189.77 458.437 180.483 458.437 169.027C458.437 157.57 449.15 148.283 437.694 148.283C426.238 148.283 416.951 157.57 416.951 169.027C416.951 180.483 426.238 189.77 437.694 189.77ZM523.924 169.027C523.924 180.483 514.637 189.77 503.181 189.77C491.725 189.77 482.437 180.483 482.437 169.027C482.437 157.57 491.725 148.283 503.181 148.283C514.637 148.283 523.924 157.57 523.924 169.027ZM568.668 189.77C580.124 189.77 589.411 180.483 589.411 169.027C589.411 157.57 580.124 148.283 568.668 148.283C557.211 148.283 547.924 157.57 547.924 169.027C547.924 180.483 557.211 189.77 568.668 189.77ZM654.898 169.027C654.898 180.483 645.611 189.77 634.155 189.77C622.698 189.77 613.411 180.483 613.411 169.027C613.411 157.57 622.698 148.283 634.155 148.283C645.611 148.283 654.898 157.57 654.898 169.027ZM699.642 189.77C711.098 189.77 720.385 180.483 720.385 169.027C720.385 157.57 711.098 148.283 699.642 148.283C688.185 148.283 678.898 157.57 678.898 169.027C678.898 180.483 688.185 189.77 699.642 189.77ZM785.872 169.027C785.872 180.483 776.585 189.77 765.128 189.77C753.672 189.77 744.385 180.483 744.385 169.027C744.385 157.57 753.672 148.283 765.128 148.283C776.585 148.283 785.872 157.57 785.872 169.027ZM11.2857 124.283C22.742 124.283 32.0291 114.996 32.0291 103.539C32.0291 92.0831 22.742 82.7959 11.2857 82.7959C-0.170605 82.7959 -9.45776 92.0831 -9.45776 103.539C-9.45776 114.996 -0.170605 124.283 11.2857 124.283ZM97.5161 103.539C97.5161 114.996 88.2289 124.283 76.7726 124.283C65.3163 124.283 56.0292 114.996 56.0292 103.539C56.0292 92.0831 65.3163 82.7959 76.7726 82.7959C88.2289 82.7959 97.5161 92.0831 97.5161 103.539ZM142.26 124.283C153.716 124.283 163.003 114.996 163.003 103.539C163.003 92.0831 153.716 82.7959 142.26 82.7959C130.803 82.7959 121.516 92.0831 121.516 103.539C121.516 114.996 130.803 124.283 142.26 124.283ZM228.49 103.539C228.49 114.996 219.203 124.283 207.747 124.283C196.29 124.283 187.003 114.996 187.003 103.539C187.003 92.0831 196.29 82.7959 207.747 82.7959C219.203 82.7959 228.49 92.0831 228.49 103.539ZM273.233 124.283C284.69 124.283 293.977 114.996 293.977 103.539C293.977 92.0831 284.69 82.7959 273.233 82.7959C261.777 82.7959 252.49 92.0831 252.49 103.539C252.49 114.996 261.777 124.283 273.233 124.283ZM359.464 103.539C359.464 114.996 350.177 124.283 338.72 124.283C327.264 124.283 317.977 114.996 317.977 103.539C317.977 92.0831 327.264 82.7959 338.72 82.7959C350.177 82.7959 359.464 92.0831 359.464 103.539ZM404.207 124.283C415.664 124.283 424.951 114.996 424.951 103.539C424.951 92.0831 415.664 82.7959 404.207 82.7959C392.751 82.7959 383.464 92.0831 383.464 103.539C383.464 114.996 392.751 124.283 404.207 124.283ZM490.438 103.539C490.438 114.996 481.151 124.283 469.694 124.283C458.238 124.283 448.951 114.996 448.951 103.539C448.951 92.0831 458.238 82.7959 469.694 82.7959C481.151 82.7959 490.438 92.0831 490.438 103.539ZM535.181 124.283C546.637 124.283 555.924 114.996 555.924 103.539C555.924 92.0831 546.637 82.7959 535.181 82.7959C523.725 82.7959 514.438 92.0831 514.438 103.539C514.438 114.996 523.725 124.283 535.181 124.283ZM621.411 103.539C621.411 114.996 612.124 124.283 600.668 124.283C589.212 124.283 579.925 114.996 579.925 103.539C579.925 92.0831 589.212 82.7959 600.668 82.7959C612.124 82.7959 621.411 92.0831 621.411 103.539ZM666.155 124.283C677.611 124.283 686.898 114.996 686.898 103.539C686.898 92.0831 677.611 82.7959 666.155 82.7959C654.699 82.7959 645.411 92.0831 645.411 103.539C645.411 114.996 654.699 124.283 666.155 124.283ZM752.385 103.539C752.385 114.996 743.098 124.283 731.642 124.283C720.186 124.283 710.898 114.996 710.898 103.539C710.898 92.0831 720.186 82.7959 731.642 82.7959C743.098 82.7959 752.385 92.0831 752.385 103.539ZM797.129 124.283C808.585 124.283 817.872 114.996 817.872 103.539C817.872 92.0831 808.585 82.7959 797.129 82.7959C785.672 82.7959 776.385 92.0831 776.385 103.539C776.385 114.996 785.672 124.283 797.129 124.283ZM32.0291 234.513C32.0291 245.969 22.742 255.256 11.2857 255.256C-0.170605 255.256 -9.45776 245.969 -9.45776 234.513C-9.45776 223.057 -0.170605 213.77 11.2857 213.77C22.742 213.77 32.0291 223.057 32.0291 234.513ZM76.7726 255.256C88.2289 255.256 97.5161 245.969 97.5161 234.513C97.5161 223.057 88.2289 213.77 76.7726 213.77C65.3163 213.77 56.0292 223.057 56.0292 234.513C56.0292 245.969 65.3163 255.256 76.7726 255.256ZM163.003 234.513C163.003 245.969 153.716 255.256 142.26 255.256C130.803 255.256 121.516 245.969 121.516 234.513C121.516 223.057 130.803 213.77 142.26 213.77C153.716 213.77 163.003 223.057 163.003 234.513ZM207.747 255.256C219.203 255.256 228.49 245.969 228.49 234.513C228.49 223.057 219.203 213.77 207.747 213.77C196.29 213.77 187.003 223.057 187.003 234.513C187.003 245.969 196.29 255.256 207.747 255.256ZM293.977 234.513C293.977 245.969 284.69 255.256 273.233 255.256C261.777 255.256 252.49 245.969 252.49 234.513C252.49 223.057 261.777 213.77 273.233 213.77C284.69 213.77 293.977 223.057 293.977 234.513ZM338.72 255.256C350.177 255.256 359.464 245.969 359.464 234.513C359.464 223.057 350.177 213.77 338.72 213.77C327.264 213.77 317.977 223.057 317.977 234.513C317.977 245.969 327.264 255.256 338.72 255.256ZM424.951 234.513C424.951 245.969 415.664 255.256 404.207 255.256C392.751 255.256 383.464 245.969 383.464 234.513C383.464 223.057 392.751 213.77 404.207 213.77C415.664 213.77 424.951 223.057 424.951 234.513ZM469.694 255.256C481.151 255.256 490.438 245.969 490.438 234.513C490.438 223.057 481.151 213.77 469.694 213.77C458.238 213.77 448.951 223.057 448.951 234.513C448.951 245.969 458.238 255.256 469.694 255.256ZM555.924 234.513C555.924 245.969 546.637 255.256 535.181 255.256C523.725 255.256 514.438 245.969 514.438 234.513C514.438 223.057 523.725 213.77 535.181 213.77C546.637 213.77 555.924 223.057 555.924 234.513ZM600.668 255.256C612.124 255.256 621.411 245.969 621.411 234.513C621.411 223.057 612.124 213.77 600.668 213.77C589.212 213.77 579.925 223.057 579.925 234.513C579.925 245.969 589.212 255.256 600.668 255.256ZM686.898 234.513C686.898 245.969 677.611 255.256 666.155 255.256C654.699 255.256 645.411 245.969 645.411 234.513C645.411 223.057 654.699 213.77 666.155 213.77C677.611 213.77 686.898 223.057 686.898 234.513ZM731.642 255.256C743.098 255.256 752.385 245.969 752.385 234.513C752.385 223.057 743.098 213.77 731.642 213.77C720.186 213.77 710.898 223.057 710.898 234.513C710.898 245.969 720.186 255.256 731.642 255.256ZM817.872 234.513C817.872 245.969 808.585 255.256 797.129 255.256C785.672 255.256 776.385 245.969 776.385 234.513C776.385 223.057 785.672 213.77 797.129 213.77C808.585 213.77 817.872 223.057 817.872 234.513ZM-20.7146 320.744C-9.25827 320.744 0.0288925 311.457 0.0288925 300C0.0288925 288.544 -9.25827 279.257 -20.7146 279.257C-32.1708 279.257 -41.458 288.544 -41.458 300C-41.458 311.457 -32.1708 320.744 -20.7146 320.744ZM65.5158 300C65.5158 311.457 56.2287 320.744 44.7724 320.744C33.3161 320.744 24.0289 311.457 24.0289 300C24.0289 288.544 33.3161 279.257 44.7724 279.257C56.2287 279.257 65.5158 288.544 65.5158 300ZM110.259 320.744C121.716 320.744 131.003 311.457 131.003 300C131.003 288.544 121.716 279.257 110.259 279.257C98.803 279.257 89.5159 288.544 89.5159 300C89.5159 311.457 98.803 320.744 110.259 320.744ZM196.49 300C196.49 311.457 187.203 320.744 175.746 320.744C164.29 320.744 155.003 311.457 155.003 300C155.003 288.544 164.29 279.257 175.746 279.257C187.203 279.257 196.49 288.544 196.49 300ZM241.233 320.744C252.689 320.744 261.977 311.457 261.977 300C261.977 288.544 252.689 279.257 241.233 279.257C229.777 279.257 220.49 288.544 220.49 300C220.49 311.457 229.777 320.744 241.233 320.744ZM327.464 300C327.464 311.457 318.176 320.744 306.72 320.744C295.264 320.744 285.977 311.457 285.977 300C285.977 288.544 295.264 279.257 306.72 279.257C318.176 279.257 327.464 288.544 327.464 300ZM372.207 320.744C383.663 320.744 392.951 311.457 392.951 300C392.951 288.544 383.663 279.257 372.207 279.257C360.751 279.257 351.464 288.544 351.464 300C351.464 311.457 360.751 320.744 372.207 320.744ZM458.437 300C458.437 311.457 449.15 320.744 437.694 320.744C426.238 320.744 416.951 311.457 416.951 300C416.951 288.544 426.238 279.257 437.694 279.257C449.15 279.257 458.437 288.544 458.437 300ZM503.181 320.744C514.637 320.744 523.924 311.457 523.924 300C523.924 288.544 514.637 279.257 503.181 279.257C491.725 279.257 482.437 288.544 482.437 300C482.437 311.457 491.725 320.744 503.181 320.744ZM589.411 300C589.411 311.457 580.124 320.744 568.668 320.744C557.211 320.744 547.924 311.457 547.924 300C547.924 288.544 557.211 279.257 568.668 279.257C580.124 279.257 589.411 288.544 589.411 300ZM634.155 320.744C645.611 320.744 654.898 311.457 654.898 300C654.898 288.544 645.611 279.257 634.155 279.257C622.698 279.257 613.411 288.544 613.411 300C613.411 311.457 622.698 320.744 634.155 320.744ZM720.385 300C720.385 311.457 711.098 320.744 699.642 320.744C688.185 320.744 678.898 311.457 678.898 300C678.898 288.544 688.185 279.257 699.642 279.257C711.098 279.257 720.385 288.544 720.385 300ZM765.128 320.744C776.585 320.744 785.872 311.457 785.872 300C785.872 288.544 776.585 279.257 765.128 279.257C753.672 279.257 744.385 288.544 744.385 300C744.385 311.457 753.672 320.744 765.128 320.744ZM0.0288925 430.974C0.0288925 442.43 -9.25827 451.717 -20.7146 451.717C-32.1708 451.717 -41.458 442.43 -41.458 430.974C-41.458 419.518 -32.1708 410.23 -20.7146 410.23C-9.25827 410.23 0.0288925 419.518 0.0288925 430.974ZM44.7724 451.717C56.2287 451.717 65.5158 442.43 65.5158 430.974C65.5158 419.518 56.2287 410.23 44.7724 410.23C33.3161 410.23 24.0289 419.518 24.0289 430.974C24.0289 442.43 33.3161 451.717 44.7724 451.717ZM131.003 430.974C131.003 442.43 121.716 451.717 110.259 451.717C98.803 451.717 89.5159 442.43 89.5159 430.974C89.5159 419.518 98.803 410.23 110.259 410.23C121.716 410.23 131.003 419.518 131.003 430.974ZM175.746 451.717C187.203 451.717 196.49 442.43 196.49 430.974C196.49 419.518 187.203 410.23 175.746 410.23C164.29 410.23 155.003 419.518 155.003 430.974C155.003 442.43 164.29 451.717 175.746 451.717ZM261.977 430.974C261.977 442.43 252.689 451.717 241.233 451.717C229.777 451.717 220.49 442.43 220.49 430.974C220.49 419.518 229.777 410.23 241.233 410.23C252.689 410.23 261.977 419.518 261.977 430.974ZM306.72 451.717C318.176 451.717 327.464 442.43 327.464 430.974C327.464 419.518 318.176 410.23 306.72 410.23C295.264 410.23 285.977 419.518 285.977 430.974C285.977 442.43 295.264 451.717 306.72 451.717ZM392.951 430.974C392.951 442.43 383.663 451.717 372.207 451.717C360.751 451.717 351.464 442.43 351.464 430.974C351.464 419.518 360.751 410.23 372.207 410.23C383.663 410.23 392.951 419.518 392.951 430.974ZM437.694 451.717C449.15 451.717 458.437 442.43 458.437 430.974C458.437 419.518 449.15 410.23 437.694 410.23C426.238 410.23 416.951 419.518 416.951 430.974C416.951 442.43 426.238 451.717 437.694 451.717ZM523.924 430.974C523.924 442.43 514.637 451.717 503.181 451.717C491.725 451.717 482.437 442.43 482.437 430.974C482.437 419.518 491.725 410.23 503.181 410.23C514.637 410.23 523.924 419.518 523.924 430.974ZM568.668 451.717C580.124 451.717 589.411 442.43 589.411 430.974C589.411 419.518 580.124 410.23 568.668 410.23C557.211 410.23 547.924 419.518 547.924 430.974C547.924 442.43 557.211 451.717 568.668 451.717ZM654.898 430.974C654.898 442.43 645.611 451.717 634.155 451.717C622.698 451.717 613.411 442.43 613.411 430.974C613.411 419.518 622.698 410.23 634.155 410.23C645.611 410.23 654.898 419.518 654.898 430.974ZM699.642 451.717C711.098 451.717 720.385 442.43 720.385 430.974C720.385 419.518 711.098 410.23 699.642 410.23C688.185 410.23 678.898 419.518 678.898 430.974C678.898 442.43 688.185 451.717 699.642 451.717ZM785.872 430.974C785.872 442.43 776.585 451.717 765.128 451.717C753.672 451.717 744.385 442.43 744.385 430.974C744.385 419.518 753.672 410.23 765.128 410.23C776.585 410.23 785.872 419.518 785.872 430.974ZM-20.7146 582.691C-9.25827 582.691 0.0288925 573.404 0.0288925 561.948C0.0288925 550.491 -9.25827 541.204 -20.7146 541.204C-32.1708 541.204 -41.458 550.491 -41.458 561.948C-41.458 573.404 -32.1708 582.691 -20.7146 582.691ZM65.5158 561.948C65.5158 573.404 56.2287 582.691 44.7724 582.691C33.3161 582.691 24.0289 573.404 24.0289 561.948C24.0289 550.491 33.3161 541.204 44.7724 541.204C56.2287 541.204 65.5158 550.491 65.5158 561.948ZM110.259 582.691C121.716 582.691 131.003 573.404 131.003 561.948C131.003 550.491 121.716 541.204 110.259 541.204C98.803 541.204 89.5159 550.491 89.5159 561.948C89.5159 573.404 98.803 582.691 110.259 582.691ZM196.49 561.948C196.49 573.404 187.203 582.691 175.746 582.691C164.29 582.691 155.003 573.404 155.003 561.948C155.003 550.491 164.29 541.204 175.746 541.204C187.203 541.204 196.49 550.491 196.49 561.948ZM241.233 582.691C252.689 582.691 261.977 573.404 261.977 561.948C261.977 550.491 252.689 541.204 241.233 541.204C229.777 541.204 220.49 550.491 220.49 561.948C220.49 573.404 229.777 582.691 241.233 582.691ZM327.464 561.948C327.464 573.404 318.176 582.691 306.72 582.691C295.264 582.691 285.977 573.404 285.977 561.948C285.977 550.491 295.264 541.204 306.72 541.204C318.176 541.204 327.464 550.491 327.464 561.948ZM372.207 582.691C383.663 582.691 392.951 573.404 392.951 561.948C392.951 550.491 383.663 541.204 372.207 541.204C360.751 541.204 351.464 550.491 351.464 561.948C351.464 573.404 360.751 582.691 372.207 582.691ZM458.437 561.948C458.437 573.404 449.15 582.691 437.694 582.691C426.238 582.691 416.951 573.404 416.951 561.948C416.951 550.491 426.238 541.204 437.694 541.204C449.15 541.204 458.437 550.491 458.437 561.948ZM503.181 582.691C514.637 582.691 523.924 573.404 523.924 561.948C523.924 550.491 514.637 541.204 503.181 541.204C491.725 541.204 482.437 550.491 482.437 561.948C482.437 573.404 491.725 582.691 503.181 582.691ZM589.411 561.948C589.411 573.404 580.124 582.691 568.668 582.691C557.211 582.691 547.924 573.404 547.924 561.948C547.924 550.491 557.211 541.204 568.668 541.204C580.124 541.204 589.411 550.491 589.411 561.948ZM634.155 582.691C645.611 582.691 654.898 573.404 654.898 561.948C654.898 550.491 645.611 541.204 634.155 541.204C622.698 541.204 613.411 550.491 613.411 561.948C613.411 573.404 622.698 582.691 634.155 582.691ZM720.385 561.948C720.385 573.404 711.098 582.691 699.642 582.691C688.185 582.691 678.898 573.404 678.898 561.948C678.898 550.491 688.185 541.204 699.642 541.204C711.098 541.204 720.385 550.491 720.385 561.948ZM765.128 582.691C776.585 582.691 785.872 573.404 785.872 561.948C785.872 550.491 776.585 541.204 765.128 541.204C753.672 541.204 744.385 550.491 744.385 561.948C744.385 573.404 753.672 582.691 765.128 582.691ZM32.0291 365.487C32.0291 376.943 22.742 386.23 11.2857 386.23C-0.170605 386.23 -9.45776 376.943 -9.45776 365.487C-9.45776 354.03 -0.170605 344.743 11.2857 344.743C22.742 344.743 32.0291 354.03 32.0291 365.487ZM76.7726 386.23C88.2289 386.23 97.5161 376.943 97.5161 365.487C97.5161 354.03 88.2289 344.743 76.7726 344.743C65.3163 344.743 56.0292 354.03 56.0292 365.487C56.0292 376.943 65.3163 386.23 76.7726 386.23ZM163.003 365.487C163.003 376.943 153.716 386.23 142.26 386.23C130.803 386.23 121.516 376.943 121.516 365.487C121.516 354.03 130.803 344.743 142.26 344.743C153.716 344.743 163.003 354.03 163.003 365.487ZM207.747 386.23C219.203 386.23 228.49 376.943 228.49 365.487C228.49 354.03 219.203 344.743 207.747 344.743C196.29 344.743 187.003 354.03 187.003 365.487C187.003 376.943 196.29 386.23 207.747 386.23ZM293.977 365.487C293.977 376.943 284.69 386.23 273.233 386.23C261.777 386.23 252.49 376.943 252.49 365.487C252.49 354.03 261.777 344.743 273.233 344.743C284.69 344.743 293.977 354.03 293.977 365.487ZM338.72 386.23C350.177 386.23 359.464 376.943 359.464 365.487C359.464 354.03 350.177 344.743 338.72 344.743C327.264 344.743 317.977 354.03 317.977 365.487C317.977 376.943 327.264 386.23 338.72 386.23ZM424.951 365.487C424.951 376.943 415.664 386.23 404.207 386.23C392.751 386.23 383.464 376.943 383.464 365.487C383.464 354.03 392.751 344.743 404.207 344.743C415.664 344.743 424.951 354.03 424.951 365.487ZM469.694 386.23C481.151 386.23 490.438 376.943 490.438 365.487C490.438 354.03 481.151 344.743 469.694 344.743C458.238 344.743 448.951 354.03 448.951 365.487C448.951 376.943 458.238 386.23 469.694 386.23ZM555.924 365.487C555.924 376.943 546.637 386.23 535.181 386.23C523.725 386.23 514.438 376.943 514.438 365.487C514.438 354.03 523.725 344.743 535.181 344.743C546.637 344.743 555.924 354.03 555.924 365.487ZM600.668 386.23C612.124 386.23 621.411 376.943 621.411 365.487C621.411 354.03 612.124 344.743 600.668 344.743C589.212 344.743 579.925 354.03 579.925 365.487C579.925 376.943 589.212 386.23 600.668 386.23ZM686.898 365.487C686.898 376.943 677.611 386.23 666.155 386.23C654.699 386.23 645.411 376.943 645.411 365.487C645.411 354.03 654.699 344.743 666.155 344.743C677.611 344.743 686.898 354.03 686.898 365.487ZM731.642 386.23C743.098 386.23 752.385 376.943 752.385 365.487C752.385 354.03 743.098 344.743 731.642 344.743C720.186 344.743 710.898 354.03 710.898 365.487C710.898 376.943 720.186 386.23 731.642 386.23ZM817.872 365.487C817.872 376.943 808.585 386.23 797.129 386.23C785.672 386.23 776.385 376.943 776.385 365.487C776.385 354.03 785.672 344.743 797.129 344.743C808.585 344.743 817.872 354.03 817.872 365.487ZM11.2857 517.204C22.742 517.204 32.0291 507.917 32.0291 496.46C32.0291 485.004 22.742 475.717 11.2857 475.717C-0.170605 475.717 -9.45776 485.004 -9.45776 496.46C-9.45776 507.917 -0.170605 517.204 11.2857 517.204ZM97.5161 496.46C97.5161 507.917 88.2289 517.204 76.7726 517.204C65.3163 517.204 56.0292 507.917 56.0292 496.46C56.0292 485.004 65.3163 475.717 76.7726 475.717C88.2289 475.717 97.5161 485.004 97.5161 496.46ZM142.26 517.204C153.716 517.204 163.003 507.917 163.003 496.46C163.003 485.004 153.716 475.717 142.26 475.717C130.803 475.717 121.516 485.004 121.516 496.46C121.516 507.917 130.803 517.204 142.26 517.204ZM228.49 496.46C228.49 507.917 219.203 517.204 207.747 517.204C196.29 517.204 187.003 507.917 187.003 496.46C187.003 485.004 196.29 475.717 207.747 475.717C219.203 475.717 228.49 485.004 228.49 496.46ZM273.233 517.204C284.69 517.204 293.977 507.917 293.977 496.46C293.977 485.004 284.69 475.717 273.233 475.717C261.777 475.717 252.49 485.004 252.49 496.46C252.49 507.917 261.777 517.204 273.233 517.204ZM359.464 496.46C359.464 507.917 350.177 517.204 338.72 517.204C327.264 517.204 317.977 507.917 317.977 496.46C317.977 485.004 327.264 475.717 338.72 475.717C350.177 475.717 359.464 485.004 359.464 496.46ZM404.207 517.204C415.664 517.204 424.951 507.917 424.951 496.46C424.951 485.004 415.664 475.717 404.207 475.717C392.751 475.717 383.464 485.004 383.464 496.46C383.464 507.917 392.751 517.204 404.207 517.204ZM490.438 496.46C490.438 507.917 481.151 517.204 469.694 517.204C458.238 517.204 448.951 507.917 448.951 496.46C448.951 485.004 458.238 475.717 469.694 475.717C481.151 475.717 490.438 485.004 490.438 496.46ZM535.181 517.204C546.637 517.204 555.924 507.917 555.924 496.46C555.924 485.004 546.637 475.717 535.181 475.717C523.725 475.717 514.438 485.004 514.438 496.46C514.438 507.917 523.725 517.204 535.181 517.204ZM621.411 496.46C621.411 507.917 612.124 517.204 600.668 517.204C589.212 517.204 579.925 507.917 579.925 496.46C579.925 485.004 589.212 475.717 600.668 475.717C612.124 475.717 621.411 485.004 621.411 496.46ZM666.155 517.204C677.611 517.204 686.898 507.917 686.898 496.46C686.898 485.004 677.611 475.717 666.155 475.717C654.699 475.717 645.411 485.004 645.411 496.46C645.411 507.917 654.699 517.204 666.155 517.204ZM752.385 496.46C752.385 507.917 743.098 517.204 731.642 517.204C720.186 517.204 710.898 507.917 710.898 496.46C710.898 485.004 720.186 475.717 731.642 475.717C743.098 475.717 752.385 485.004 752.385 496.46ZM797.129 517.204C808.585 517.204 817.872 507.917 817.872 496.46C817.872 485.004 808.585 475.717 797.129 475.717C785.672 475.717 776.385 485.004 776.385 496.46C776.385 507.917 785.672 517.204 797.129 517.204Z" fill="#B3CAF8" stroke="#2249B3" stroke-width="1"></path>
<path d="M559.183 169.733C559.183 217.933 526.818 246.345 440.776 246.345C354.735 246.345 322.37 217.933 322.37 169.733C318.059 90.1562 375.382 82.4592 440.776 82.4592C506.17 82.4592 559.183 90.7886 559.183 169.733Z" fill="#157efb" stroke="#2249B3" stroke-width="1"></path>
<path d="M302.567 268.904L338.621 209.821L369.464 232.5L302.567 268.904Z" fill="#157efb" stroke="#2249B3" stroke-width="1"></path>
<path d="M468.829 150.441C468.829 165.935 456.269 178.495 440.776 178.495C425.282 178.495 412.722 165.935 412.722 150.441C412.722 134.948 425.282 122.388 440.776 122.388C456.269 122.388 468.829 134.948 468.829 150.441Z" fill="#FAFFFE" stroke="#2249B3" stroke-width="1"></path>
<path d="M428.664 181.722C419.751 174.181 414.562 162.353 413.276 155.211L440.662 150.87V202.719H428.664V181.722Z" fill="#FAFFFE" stroke="#2249B3" stroke-width="1"></path>
<path d="M452.66 181.722C461.573 174.181 467.13 161.943 468.415 154.801L440.662 150.87V202.719H452.66V181.722Z" fill="#FAFFFE" stroke="#2249B3" stroke-width="1"></path>
<path d="M440.776 202.563C443.83 202.563 446.306 205.039 446.306 208.093L446.306 211.548C446.306 214.603 443.83 217.079 440.776 217.079C437.722 217.079 435.246 214.603 435.246 211.548L435.246 208.093C435.246 205.039 437.722 202.563 440.776 202.563Z" fill="#8FE4FF" stroke="#2249B3" stroke-width="1"></path>
<path fill-rule="evenodd" clip-rule="evenodd" d="M424.595 141.81C425.012 141.448 425.644 141.493 426.005 141.91C433.381 150.414 435.875 158.558 436.889 170.666C437.024 172.274 437.273 174.104 437.508 175.703C437.582 176.203 437.654 176.685 437.722 177.132C437.794 177.609 437.86 178.045 437.913 178.417H443.464C442.725 173.941 443.104 167.341 444.328 161.162C445.003 157.758 445.943 154.433 447.123 151.608C448.294 148.808 449.743 146.398 451.489 144.931C451.912 144.576 452.543 144.631 452.898 145.054C453.253 145.477 453.198 146.108 452.775 146.463C451.392 147.625 450.094 149.687 448.969 152.38C447.853 155.049 446.946 158.24 446.29 161.551C444.971 168.209 444.702 175.161 445.655 179.186L445.947 180.417H436.136L436.042 179.522C436 179.126 435.894 178.419 435.756 177.508C435.687 177.05 435.61 176.541 435.529 175.993C435.293 174.388 435.036 172.506 434.896 170.833C433.904 158.993 431.505 151.304 424.495 143.22C424.133 142.803 424.178 142.172 424.595 141.81Z" fill="#157efb" stroke="#2249B3" stroke-width="1"></path>
<path fill-rule="evenodd" clip-rule="evenodd" d="M432.791 140.925C433.595 141.713 434.048 142.958 433.694 144.471C433.562 145.038 433.253 145.502 432.88 145.876C433.389 146.185 434.047 146.347 434.932 146.173C436.226 145.919 437.403 145.382 438.368 144.718C438.178 144.416 438.029 144.105 437.918 143.786C437.549 142.727 437.632 141.672 437.966 140.807C438.29 139.965 438.889 139.216 439.658 138.846C440.053 138.656 440.519 138.556 441.007 138.643C441.504 138.731 441.937 138.997 442.274 139.39C442.942 140.169 443.05 141.144 442.846 142.049C442.646 142.937 442.138 143.822 441.462 144.616C441.402 144.686 441.341 144.756 441.277 144.825C441.326 144.856 441.375 144.887 441.427 144.918C442.964 145.845 444.441 145.667 445.662 144.958C444.917 143.31 445.026 141.859 445.729 140.755C446.259 139.923 447.108 139.376 447.969 139.283C448.406 139.236 448.892 139.304 449.319 139.578C449.763 139.861 450.051 140.308 450.162 140.834C450.351 141.736 450.069 142.741 449.62 143.603C449.289 144.239 448.83 144.871 448.271 145.438C448.611 145.883 449.046 146.366 449.597 146.887C450.872 148.092 452.062 148.959 453.136 149.574L452.141 151.309C450.918 150.608 449.602 149.643 448.223 148.341C447.621 147.771 447.115 147.211 446.7 146.666C444.968 147.68 442.705 148.025 440.394 146.631C440.162 146.491 439.946 146.345 439.745 146.192C438.515 147.09 436.996 147.806 435.318 148.136C433.891 148.416 432.676 148.136 431.707 147.5C431.487 147.356 431.284 147.196 431.095 147.024C430.897 147.111 430.695 147.191 430.494 147.264C429.126 147.76 427.591 148.016 426.587 148.104L426.413 146.112C427.298 146.034 428.652 145.805 429.812 145.384C429.824 145.379 429.836 145.375 429.848 145.371C429.795 145.27 429.746 145.17 429.699 145.07C429.282 144.171 429.064 143.22 429.021 142.436C428.999 142.049 429.018 141.655 429.103 141.309C429.171 141.033 429.359 140.471 429.927 140.217C430.907 139.78 432.067 140.217 432.791 140.925ZM431.57 144.346C431.551 144.307 431.532 144.268 431.514 144.228C431.203 143.558 431.047 142.856 431.018 142.325C431.013 142.241 431.012 142.166 431.013 142.099C431.121 142.142 431.252 142.218 431.392 142.355C431.681 142.638 431.946 143.162 431.747 144.016C431.725 144.108 431.674 144.219 431.57 144.346ZM431.06 141.74C431.061 141.741 431.058 141.751 431.051 141.766C431.056 141.747 431.06 141.739 431.06 141.74ZM447.27 143.558C447.5 143.27 447.694 142.972 447.846 142.679C448.184 142.03 448.254 141.533 448.209 141.27C448.201 141.27 448.192 141.271 448.183 141.272C447.992 141.292 447.657 141.451 447.416 141.83C447.222 142.135 447.039 142.712 447.27 143.558ZM439.902 143.362C439.915 143.348 439.927 143.333 439.94 143.318C440.477 142.688 440.787 142.088 440.895 141.609C441 141.145 440.908 140.869 440.756 140.693C440.717 140.647 440.689 140.628 440.676 140.62C440.664 140.613 440.659 140.612 440.658 140.612C440.656 140.612 440.647 140.61 440.627 140.613C440.606 140.617 440.571 140.626 440.525 140.648C440.319 140.747 440.02 141.039 439.832 141.527C439.652 141.992 439.608 142.558 439.807 143.128C439.834 143.205 439.865 143.283 439.902 143.362Z" fill="#157efb" stroke="#2249B3" stroke-width="1"></path>
<path d="M424.178 204.835C424.178 202.591 425.998 200.771 428.242 200.771H453.31C455.555 200.771 457.374 202.591 457.374 204.835C457.374 207.079 455.555 208.898 453.31 208.898H428.242C425.998 208.898 424.178 207.079 424.178 204.835Z" fill="#F7F7F7" stroke="#2249B3" stroke-width="1"></path>
<path d="M424.178 196.708C424.178 194.464 425.998 192.644 428.242 192.644H453.31C455.555 192.644 457.374 194.464 457.374 196.708C457.374 198.952 455.555 200.771 453.31 200.771H428.242C425.998 200.771 424.178 198.952 424.178 196.708Z" fill="#F7F7F7" stroke="#2249B3" stroke-width="1"></path>
<path d="M424.178 188.581C424.178 186.336 425.998 184.517 428.242 184.517H453.31C455.555 184.517 457.374 186.336 457.374 188.581C457.374 190.825 455.555 192.644 453.31 192.644H428.242C425.998 192.644 424.178 190.825 424.178 188.581Z" fill="#F7F7F7" stroke="#2249B3" stroke-width="1"></path>
<path d="M455.404 286.888C454.59 284.289 451.823 282.843 449.225 283.657L423.695 291.653C421.096 292.467 419.649 295.233 420.463 297.832L426.464 316.993C427.278 319.591 430.045 321.038 432.643 320.224L458.173 312.228C460.772 311.414 462.219 308.648 461.405 306.049L455.404 286.888Z" fill="#B3CAF8" stroke="#2249B3" stroke-width="1"></path>
<path d="M484.12 276.37C482.798 272.147 478.302 269.796 474.079 271.119L432.897 284.017L440.262 307.53C443.11 316.626 452.793 321.69 461.889 318.841L478.955 313.496C487.401 310.85 492.103 301.859 489.458 293.413L484.12 276.37Z" fill="#8FE4FF" stroke="#2249B3" stroke-width="1"></path>
<path d="M443.61 271.977C441.721 265.944 434.284 262.904 426.999 265.185L438.336 301.382L451.526 297.251L443.61 271.977Z" fill="#8FE4FF" stroke="#2249B3" stroke-width="1"></path>
<path d="M273.898 380.517C274.632 378.174 277.125 376.87 279.468 377.604L302.479 384.811C304.821 385.545 306.125 388.038 305.392 390.381L299.982 407.651C299.249 409.993 296.755 411.297 294.413 410.564L271.402 403.356C269.059 402.623 267.755 400.129 268.489 397.787L273.898 380.517Z" fill="#B3CAF8" stroke="#2249B3" stroke-width="1"></path>
<path d="M248.015 371.036C249.207 367.23 253.259 365.111 257.066 366.303L294.184 377.929L287.546 399.121C284.979 407.32 276.251 411.884 268.053 409.316L252.671 404.499C245.058 402.114 240.819 394.01 243.204 386.398L248.015 371.036Z" fill="#8FE4FF" stroke="#2249B3" stroke-width="1"></path>
<path d="M284.528 367.076C286.231 361.639 292.934 358.899 299.5 360.955L289.282 393.58L277.393 389.857L284.528 367.076Z" fill="#8FE4FF" stroke="#2249B3" stroke-width="1"></path>
<path d="M191.753 86.1845L204.19 94.8209L190.492 101.273L191.753 86.1845Z" fill="#157efb" stroke="#2249B3" stroke-width="1"></path>
<path d="M749.081 313.297L748.201 328.413L735.55 320.094L749.081 313.297Z" fill="#157efb" stroke="#2249B3" stroke-width="1"></path>
<path d="M754.528 36.0414L753.649 51.1573L740.998 42.8381L754.528 36.0414Z" fill="#157efb" stroke="#2249B3" stroke-width="1"></path>
<path d="M54.1266 42.4813L39.7037 47.0903L42.9236 32.2952L54.1266 42.4813Z" fill="#157efb" stroke="#2249B3" stroke-width="1"></path>
<path d="M663.622 154.729L674.293 165.471L659.654 169.341L663.622 154.729Z" fill="#157efb" stroke="#2249B3" stroke-width="1"></path>
<path d="M404.203 31.5763L403.574 46.7047L390.787 38.596L404.203 31.5763Z" fill="#157efb" stroke="#2249B3" stroke-width="1"></path>
<path d="M247.558 223.471C247.558 198.34 227.185 177.967 202.054 177.967H147.068C121.525 177.967 100.818 198.674 100.818 224.217V332.528H177.5C216.192 332.528 247.558 301.162 247.558 262.47V223.471Z" fill="#FAA241" stroke="#2249B3" stroke-width="1"></path>
<path d="M148.83 332.527H100.818V396.267H148.83V332.527Z" fill="#E36302" stroke="#2249B3" stroke-width="1"></path>
<path d="M148.83 342.946L100.818 319.818V396.267H148.83L148.83 342.946Z" fill="#FAA241" stroke="#2249B3" stroke-width="1"></path>
<path d="M251.186 278.87C256.023 274.678 243.016 257.342 240.904 243.494C238.791 247.954 240.904 260.746 243.486 270.486C245.488 278.042 234.677 283.909 229.946 283.604C229.8 283.588 229.653 283.572 229.505 283.555C229.645 283.578 229.792 283.594 229.946 283.604C240.486 284.768 245.222 284.038 251.186 278.87Z" fill="#E36302" stroke="#2249B3" stroke-width="1"></path>
<path d="M213.342 309.58C205.45 307.901 204.456 300.064 204.946 296.356L229.505 300.554C227.406 304.262 221.235 311.259 213.342 309.58Z" fill="#E36302" stroke="#2249B3" stroke-width="1"></path>
<path d="M224.982 257.205C224.982 252.893 221.486 249.397 217.174 249.397C212.861 249.397 209.365 252.893 209.365 257.205H224.982Z" fill="#370B04" stroke="#2249B3" stroke-width="1"></path>
<path d="M267.873 257.205C267.873 252.893 264.377 249.397 260.064 249.397C255.752 249.397 252.256 252.893 252.256 257.205H267.873Z" fill="#370B04" stroke="#2249B3" stroke-width="1"></path>
<path fill-rule="evenodd" clip-rule="evenodd" d="M217.594 234.072C217.688 234.617 217.323 235.134 216.779 235.228C211.329 236.167 207.57 240.356 206.404 242.299C206.12 242.773 205.505 242.926 205.032 242.642C204.558 242.358 204.405 241.744 204.689 241.27C206.037 239.024 210.223 234.329 216.439 233.257C216.983 233.163 217.5 233.528 217.594 234.072Z" fill="#370B04" stroke="#2249B3" stroke-width="1"></path>
<path fill-rule="evenodd" clip-rule="evenodd" d="M257.647 234.072C257.554 234.617 257.919 235.134 258.463 235.228C263.913 236.167 267.672 240.356 268.838 242.299C269.122 242.773 269.736 242.926 270.21 242.642C270.683 242.358 270.837 241.744 270.553 241.27C269.205 239.024 265.019 234.329 258.803 233.257C258.259 233.163 257.741 233.528 257.647 234.072Z" fill="#370B04" stroke="#2249B3" stroke-width="1"></path>
<path d="M93.5247 339.932L172.856 355.81L161.022 403.507L83.9792 387.305L93.5247 339.932Z" fill="#8FE4FF" stroke="#2249B3" stroke-width="1"></path>
<path fill-rule="evenodd" clip-rule="evenodd" d="M173.03 355.628C173.565 355.764 173.889 356.308 173.753 356.843L163.585 396.958C163.45 397.493 162.906 397.817 162.37 397.681C161.835 397.545 161.511 397.001 161.647 396.466L171.815 356.352C171.951 355.817 172.495 355.493 173.03 355.628Z" fill="#FFF5F6" stroke="#2249B3" stroke-width="1"></path>
<path fill-rule="evenodd" clip-rule="evenodd" d="M54.9384 544.597L202.149 547.774L28.4758 572.832L54.9384 544.597Z" fill="black" fill-opacity="0.51" stroke="#2249B3" stroke-width="1"></path>
<path opacity="0.6" fill-rule="evenodd" clip-rule="evenodd" d="M100.818 295.801C111.715 281.061 111.332 250.332 108.424 237.43C108.424 237.43 116.525 230.742 125.143 230.742C138.296 230.742 140.779 252.416 140.214 254.533H158.955C160.268 252.5 161.223 249.873 162.191 247.209C164.451 240.994 166.783 234.58 173.896 235.054C184.059 235.732 185.188 223.48 184.483 217.27L101.336 217.27C100.995 219.536 100.818 221.856 100.818 224.217V295.801Z" fill="#E36302" stroke="#2249B3" stroke-width="1"></path>
<path d="M115.929 227.232C127.678 228.401 131.459 233.461 135.034 242.252C137.752 248.937 135.034 260.73 135.034 260.73C131.196 262.65 120.45 269.089 110.957 267.011C98.5781 264.302 93.3032 251.674 95.1352 242.252C96.9671 232.831 104.033 226.049 115.929 227.232Z" fill="#FAA241" stroke="#2249B3" stroke-width="1"></path>
<path fill-rule="evenodd" clip-rule="evenodd" d="M118.934 239.034C119.295 238.616 119.927 238.57 120.345 238.931C120.934 239.44 121.919 240.64 122.43 242.055C122.956 243.51 123.034 245.414 121.37 246.893L120.66 247.525L119.993 246.847C117.833 244.651 114.477 245.38 113.417 247.908C112.771 249.448 113.297 251.332 114.615 252.807C115.932 254.282 117.801 255.073 119.458 254.676C119.996 254.548 120.535 254.879 120.664 255.416C120.792 255.953 120.461 256.493 119.924 256.621C117.337 257.24 114.765 255.977 113.123 254.14C111.482 252.302 110.532 249.616 111.573 247.134C113.07 243.564 117.451 242.464 120.573 244.717C120.861 244.125 120.809 243.455 120.549 242.734C120.168 241.679 119.399 240.757 119.037 240.444C118.619 240.084 118.573 239.452 118.934 239.034Z" fill="#370B04" stroke="#2249B3" stroke-width="1"></path>
<path d="M262.397 207.53C244.104 219.386 188.717 218.963 163.31 217.269H101.133C101.133 217.269 100.217 168.996 121.812 173.231C125.624 135.12 187.87 152.058 212.43 164.762C218.217 159.963 230.977 150.957 235.72 153.329C240.463 155.7 237.696 164.762 235.72 168.996C244.189 157.563 276.371 158.833 284.84 160.527C293.309 162.221 285.263 192.709 262.397 207.53Z" fill="#370B04" stroke="#2249B3" stroke-width="1"></path>
<path d="M114.92 158.926C119.862 162.088 122.938 177.967 122.938 177.967C122.938 177.967 117.49 166.042 110.967 164.658L114.92 158.926Z" fill="#370B04" stroke="#2249B3" stroke-width="1"></path>
<path d="M39.5882 446.487C44.5012 418.762 47.6087 393.29 78.3538 377.674C96.3347 368.542 117.628 369.97 136.138 377.975C149.908 383.929 162.487 392.498 172.19 403.939C194.63 430.398 211.672 455.184 220.157 493.365L31.6692 517.231L39.5882 446.487Z" fill="#157efb" stroke="#2249B3" stroke-width="1"></path>
<path d="M69.5821 518.572L159.497 513.158C166.082 497.734 157.785 435.462 147.051 409.798C138.314 388.908 114.509 380.142 93.7302 389.141C48.6199 408.677 57.3522 482.726 69.5821 518.572Z" fill="#157efb" stroke="#2249B3" stroke-width="1"></path>
<path d="M69.5821 518.572L159.497 513.158C166.082 497.734 157.785 435.462 147.051 409.798C138.314 388.908 114.509 380.142 93.7302 389.141C48.6199 408.677 57.3522 482.726 69.5821 518.572Z" fill="white" fill-opacity="0.27" stroke="#2249B3" stroke-width="1"></path>
<path fill-rule="evenodd" clip-rule="evenodd" d="M137.273 383.953C137.509 383.454 138.105 383.241 138.605 383.477C147.263 387.579 154.245 396.399 159.639 407.78C165.043 419.182 168.915 433.284 171.277 448.155C175.997 477.871 174.724 510.896 167.389 531.919C167.207 532.44 166.637 532.716 166.116 532.534C165.594 532.352 165.319 531.781 165.501 531.26C172.689 510.655 173.991 477.992 169.302 448.469C166.959 433.721 163.13 419.815 157.831 408.636C152.522 397.435 145.801 389.1 137.748 385.285C137.249 385.048 137.036 384.452 137.273 383.953Z" fill="#8FE4FF" stroke="#2249B3" stroke-width="1"></path>
<path d="M178.016 371.915C178.773 371.158 174.549 363.321 172.343 359.497C171.523 359.875 173.225 372.23 173.604 373.302C173.982 374.373 177.07 372.86 178.016 371.915Z" fill="#FFF5F6" stroke="#2249B3" stroke-width="1"></path>
<path d="M587.86 519.358H683.771V582.235H587.86V519.358Z" fill="#E36302" stroke="#2249B3" stroke-width="1"></path>
<path d="M587.86 552.076L683.771 498.334V582.235H587.86V552.076Z" fill="#FAA241" stroke="#2249B3" stroke-width="1"></path>
<path d="M428.818 344.896H683.771V522.254H550.54C483.315 522.254 428.818 467.758 428.818 400.533V344.896Z" fill="#FAA241" stroke="#2249B3" stroke-width="1"></path>
<path d="M555.442 120.256C563.996 166.956 612.735 193.879 630.838 246.795C645.483 289.604 695.273 324.313 687.468 347.058C705.591 357.257 702.766 369.566 702.766 369.566C727.894 354.624 716.558 291.083 695.273 261.649C662.396 172.394 608.557 132.607 555.442 120.256Z" fill="#370B04" stroke="#2249B3" stroke-width="1"></path>
<path d="M646.763 405.662C620.868 368.444 591.388 402.979 590.456 430.097H568.322C555.62 430.097 545.322 419.799 545.322 407.097V402.026L531.305 400.481C519.917 399.225 512.829 387.382 506.075 378.127C494.408 362.143 462.743 355.626 428.804 344.861L678.534 345.099C755.312 340.082 712.931 440.906 696.982 474.078C693.83 480.634 687.324 484.824 680.051 484.674C674.45 484.559 668.262 484.078 664.991 482.667C636.616 470.425 672.032 441.98 646.763 405.662Z" fill="#370B04" stroke="#2249B3" stroke-width="1"></path>
<path fill-rule="evenodd" clip-rule="evenodd" d="M617.558 411.956C618.068 411.744 618.654 411.985 618.866 412.495C619.555 414.148 620.224 414.69 620.733 414.885C621.293 415.1 621.937 415.019 622.905 414.811C622.985 414.794 623.068 414.776 623.153 414.757C623.993 414.572 625.071 414.334 626.154 414.522C627.449 414.746 628.62 415.533 629.648 417.158C630.673 418.777 630.89 420.195 630.455 421.464C630.049 422.647 629.128 423.509 628.389 424.158C628.266 424.266 628.149 424.367 628.037 424.464C627.783 424.684 627.554 424.882 627.336 425.09C627.029 425.383 626.821 425.628 626.696 425.849C626.581 426.053 626.545 426.218 626.562 426.385C626.579 426.566 626.667 426.849 626.968 427.26C627.295 427.705 627.199 428.331 626.754 428.658C626.309 428.985 625.683 428.889 625.356 428.444C624.91 427.836 624.633 427.217 624.571 426.578C624.508 425.926 624.679 425.353 624.956 424.863C625.223 424.392 625.594 423.989 625.954 423.644C626.21 423.4 626.499 423.15 626.769 422.916C626.873 422.827 626.974 422.739 627.069 422.656C627.82 421.995 628.348 421.442 628.563 420.815C628.748 420.276 628.758 419.492 627.958 418.227C627.161 416.968 626.433 416.6 625.812 416.492C625.136 416.375 624.44 416.525 623.518 416.725C623.455 416.739 623.391 416.752 623.325 416.767C622.405 416.965 621.202 417.207 620.018 416.753C618.784 416.281 617.811 415.165 617.02 413.264C616.807 412.754 617.049 412.169 617.558 411.956Z" fill="#46130C" stroke="#2249B3" stroke-width="1"></path>
<path fill-rule="evenodd" clip-rule="evenodd" d="M622.399 398.282C618.464 398.749 614.809 401.456 612.538 406.804C612.322 407.312 611.735 407.549 611.227 407.333C610.718 407.118 610.481 406.53 610.697 406.022C613.186 400.162 617.37 396.865 622.163 396.296C626.922 395.732 632.023 397.888 636.33 402.379C647.065 413.57 646.373 429.062 642.712 437.298C640.849 441.49 637.315 445.138 633.419 447.173C629.537 449.202 625.064 449.727 621.543 447.211C618.234 444.848 615.967 441.162 614.894 437.595C614.356 435.806 614.107 434.011 614.194 432.387C614.28 430.772 614.703 429.256 615.583 428.106C615.918 427.667 616.546 427.583 616.984 427.919C617.423 428.254 617.507 428.882 617.171 429.321C616.614 430.049 616.264 431.13 616.191 432.493C616.119 433.847 616.325 435.409 616.81 437.019C617.781 440.249 619.825 443.526 622.706 445.584C625.374 447.49 628.97 447.241 632.493 445.401C636.002 443.568 639.211 440.252 640.885 436.486C644.298 428.807 644.931 414.235 634.887 403.763C630.883 399.589 626.368 397.812 622.399 398.282Z" fill="#46130C" stroke="#2249B3" stroke-width="1"></path>
<path d="M425.372 455.163C418.693 451.707 432.837 435.793 433.698 409.406C441.585 417.867 457.361 439.092 452.29 459.585C443.474 461.197 433.919 459.585 425.372 455.163Z" fill="#E36302" stroke="#2249B3" stroke-width="1"></path>
<path d="M510.321 496.781C496.888 503.262 481.301 487.538 481.301 487.538C481.301 487.538 505.249 475.145 509.401 474.298C509.401 474.298 515.536 494.265 510.321 496.781Z" fill="#4B0B0A" stroke="#2249B3" stroke-width="1"></path>
<path d="M480.068 423.386C480.068 426.596 477.466 429.197 474.256 429.197C471.047 429.197 468.445 426.596 468.445 423.386C468.445 420.176 471.047 417.575 474.256 417.575C477.466 417.575 480.068 420.176 480.068 423.386Z" fill="#370B04" stroke="#2249B3" stroke-width="1"></path>
<path d="M408.981 424.169C408.981 427.197 406.526 429.652 403.497 429.652C400.469 429.652 398.014 427.197 398.014 424.169C398.014 421.14 400.469 418.685 403.497 418.685C406.526 418.685 408.981 421.14 408.981 424.169Z" fill="#370B04" stroke="#2249B3" stroke-width="1"></path>
<path fill-rule="evenodd" clip-rule="evenodd" d="M481.016 410.336C477.346 405.901 472.231 405.725 470.345 406.125C468.994 406.412 467.667 405.549 467.381 404.199C467.094 402.848 467.957 401.521 469.307 401.234C472.484 400.56 479.702 400.906 484.868 407.148C485.748 408.212 485.599 409.788 484.536 410.668C483.472 411.548 481.896 411.4 481.016 410.336Z" fill="#370B04" stroke="#2249B3" stroke-width="1"></path>
<path fill-rule="evenodd" clip-rule="evenodd" d="M397.791 410.336C401.461 405.901 406.576 405.725 408.462 406.125C409.813 406.412 411.14 405.549 411.427 404.199C411.713 402.848 410.85 401.521 409.5 401.234C406.323 400.56 399.105 400.906 393.939 407.148C393.059 408.212 393.208 409.788 394.271 410.668C395.335 411.548 396.911 411.4 397.791 410.336Z" fill="#370B04" stroke="#2249B3" stroke-width="1"></path>
<path fill-rule="evenodd" clip-rule="evenodd" d="M500.477 498.128C503.718 498.616 507.082 498.344 510.322 496.781C513.407 495.293 512.52 487.698 511.28 481.742C505.185 486.46 501.46 493.337 500.477 498.128Z" fill="#A20805" stroke="#2249B3" stroke-width="1"></path>
<path fill-rule="evenodd" clip-rule="evenodd" d="M488.999 493.538C495.644 492.966 503.399 484.545 507.368 479.253C508.71 477.464 509.446 476.294 509.754 475.511C509.538 474.744 509.401 474.298 509.401 474.298C505.388 475.116 482.884 486.721 481.38 487.497C481.471 487.627 481.561 487.754 481.65 487.877C482.58 488.759 485.299 491.222 488.999 493.538Z" fill="#FFF5F6" stroke="#2249B3" stroke-width="1"></path>
<path d="M563.856 566.75L706.49 558.513L699.202 600H571.128L563.856 566.75Z" fill="#157efb" stroke="#2249B3" stroke-width="1"></path>
</g>
<defs>
<clipPath id="clip0">
<rect width="800" height="600" fill="white" stroke="#2249B3" stroke-width="1"></rect>
</clipPath>
</defs>
</svg>
